# Made in Blockbench 5.1.6
mtllib hobbit_door.mtl

g hobbit
v 0.75 1.4374998690992435 0.6875020289451869
v 0.75 1.4374999999989375 0.5625020289452555
v 0.75 -0.43750013089972817 0.6875000654497784
v 0.75 -0.43750000000003425 0.562500065449847
v 0.25 1.4374998690992435 0.6875020289451869
v 0.25 1.4374999999989375 0.5625020289452555
v 0.25 -0.43750013089972817 0.6875000654497784
v 0.25 -0.43750000000003425 0.562500065449847
v 0.9375 1.374999869099278 0.68750196349534
v 0.9375 1.374999999998972 0.5625019634954085
v 0.9375 -0.3750001308997625 0.6875001308996254
v 0.9375 -0.37500000000006856 0.5625001308996939
v 0.75 1.374999869099278 0.68750196349534
v 0.75 1.374999999998972 0.5625019634954085
v 0.75 -0.3750001308997625 0.6875001308996254
v 0.75 -0.37500000000006856 0.5625001308996939
v 1 1.3124998690993122 0.687501898045493
v 1 1.3124999999990061 0.5625018980455615
v 1 -0.31250013089979667 0.6875001963494723
v 1 -0.3125000000001028 0.5625001963495408
v 0.9375 1.3124998690993122 0.687501898045493
v 0.9375 1.3124999999990061 0.5625018980455615
v 0.9375 -0.31250013089979667 0.6875001963494723
v 0.9375 -0.3125000000001028 0.5625001963495408
v 1.125 1.2499998690993464 0.687501832595646
v 1.125 1.2499999999990403 0.5625018325957146
v 1.125 -0.250000130899831 0.6875002617993192
v 1.125 -0.2500000000001371 0.5625002617993878
v 1 1.2499998690993464 0.687501832595646
v 1 1.2499999999990403 0.5625018325957146
v 1 -0.250000130899831 0.6875002617993192
v 1 -0.2500000000001371 0.5625002617993878
v 1.1875 1.1874998690993808 0.6875017671457991
v 1.1875 1.1874999999990747 0.5625017671458676
v 1.1875 -0.18750013089986528 0.6875003272491662
v 1.1875 -0.18750000000017136 0.5625003272492347
v 1.125 1.1874998690993808 0.6875017671457991
v 1.125 1.1874999999990747 0.5625017671458676
v 1.125 -0.18750013089986528 0.6875003272491662
v 1.125 -0.18750000000017136 0.5625003272492347
v 1.25 1.124999869099415 0.6875017016959521
v 1.25 1.124999999999109 0.5625017016960207
v 1.25 -0.12500013089989953 0.6875003926990132
v 1.25 -0.1250000000002056 0.5625003926990817
v 1.1875 1.124999869099415 0.6875017016959521
v 1.1875 1.124999999999109 0.5625017016960207
v 1.1875 -0.12500013089989953 0.6875003926990132
v 1.1875 -0.1250000000002056 0.5625003926990817
v 1.3125 0.9999998690994836 0.6875015707962583
v 1.3125 0.9999999999991775 0.5625015707963268
v 1.3125 -1.3089996808712812e-7 0.6875005235987071
v 1.3125 -2.741695759311824e-13 0.5625005235987756
v 1.25 0.9999998690994836 0.6875015707962583
v 1.25 0.9999999999991775 0.5625015707963268
v 1.25 -1.3089996808712812e-7 0.6875005235987071
v 1.25 -2.741695759311824e-13 0.5625005235987756
v 1.375 0.9374998690995178 0.6875015053464113
v 1.375 0.9374999999992117 0.5625015053464798
v 1.375 0.06249986909999772 0.687500589048554
v 1.375 0.06249999999969158 0.5625005890486225
v 1.3125 0.9374998690995178 0.6875015053464113
v 1.3125 0.9374999999992117 0.5625015053464798
v 1.3125 0.06249986909999772 0.687500589048554
v 1.3125 0.06249999999969158 0.5625005890486225
v 1.4375 0.7499998690996206 0.6875013089968705
v 1.4375 0.7499999999993145 0.562501308996939
v 1.4375 0.2499998690998949 0.6875007853980949
v 1.4375 0.24999999999958877 0.5625007853981634
v 1.375 0.7499998690996206 0.6875013089968705
v 1.375 0.7499999999993145 0.562501308996939
v 1.375 0.2499998690998949 0.6875007853980949
v 1.375 0.24999999999958877 0.5625007853981634
v 1.375 0.7499998690996206 0.6875013089968705
v 1.375 0.7499999999993145 0.562501308996939
v 1.375 0.9374998690995178 0.6875015053464113
v 1.375 0.9374999999992117 0.5625015053464798
v 1.25 0.9999998690994836 0.6875015707962583
v 1.25 0.9999999999991775 0.5625015707963268
v 1.25 1.124999869099415 0.6875017016959521
v 1.25 1.124999999999109 0.5625017016960207
v 1.25 -0.12500013089989953 0.6875003926990132
v 1.25 -0.1250000000002056 0.5625003926990817
v 1.25 -1.3089996808712812e-7 0.6875005235987071
v 1.25 -2.741695759311824e-13 0.5625005235987756
v 1.3125 0.9374998690995178 0.6875015053464113
v 1.3125 0.9374999999992117 0.5625015053464798
v 1.3125 0.9999998690994836 0.6875015707962583
v 1.3125 0.9999999999991775 0.5625015707963268
v 1.1875 1.124999869099415 0.6875017016959521
v 1.1875 1.124999999999109 0.5625017016960207
v 1.1875 1.1874998690993808 0.6875017671457991
v 1.1875 1.1874999999990747 0.5625017671458676
v 1.125 1.1874998690993808 0.6875017671457991
v 1.125 1.1874999999990747 0.5625017671458676
v 1.125 1.2499998690993464 0.687501832595646
v 1.125 1.2499999999990403 0.5625018325957146
v 1 1.2499998690993464 0.687501832595646
v 1 1.2499999999990403 0.5625018325957146
v 1 1.3124998690993122 0.687501898045493
v 1 1.3124999999990061 0.5625018980455615
v 0.9375 1.3124998690993122 0.687501898045493
v 0.9375 1.3124999999990061 0.5625018980455615
v 0.9375 1.374999869099278 0.68750196349534
v 0.9375 1.374999999998972 0.5625019634954085
v 0.75 1.374999869099278 0.68750196349534
v 0.75 1.374999999998972 0.5625019634954085
v 0.75 1.4374998690992435 0.6875020289451869
v 0.75 1.4374999999989375 0.5625020289452555
v 0.75 -0.43750013089972817 0.6875000654497784
v 0.75 -0.43750000000003425 0.562500065449847
v 0.75 -0.3750001308997625 0.6875001308996254
v 0.75 -0.37500000000006856 0.5625001308996939
v 0.9375 -0.3750001308997625 0.6875001308996254
v 0.9375 -0.37500000000006856 0.5625001308996939
v 0.9375 -0.31250013089979667 0.6875001963494723
v 0.9375 -0.3125000000001028 0.5625001963495408
v 1 -0.31250013089979667 0.6875001963494723
v 1 -0.3125000000001028 0.5625001963495408
v 1 -0.250000130899831 0.6875002617993192
v 1 -0.2500000000001371 0.5625002617993878
v 1.125 -0.250000130899831 0.6875002617993192
v 1.125 -0.2500000000001371 0.5625002617993878
v 1.125 -0.18750013089986528 0.6875003272491662
v 1.125 -0.18750000000017136 0.5625003272492347
v 1.1875 -0.18750013089986528 0.6875003272491662
v 1.1875 -0.18750000000017136 0.5625003272492347
v 1.1875 -0.12500013089989953 0.6875003926990132
v 1.1875 -0.1250000000002056 0.5625003926990817
v 1.3125 -1.3089996808712812e-7 0.6875005235987071
v 1.3125 -2.741695759311824e-13 0.5625005235987756
v 1.3125 0.06249986909999772 0.687500589048554
v 1.3125 0.06249999999969158 0.5625005890486225
v 1.375 0.06249986909999772 0.687500589048554
v 1.375 0.06249999999969158 0.5625005890486225
v 1.375 0.2499998690998949 0.6875007853980949
v 1.375 0.24999999999958877 0.5625007853981634
v 0.0625 1.3749999999950449 0.5625057134954085
v 0.0625 1.374999869095351 0.68750571349534
v 0.0625 -0.37500000000006856 0.5625001308996939
v 0.0625 -0.3750001308997625 0.6875001308996254
v 0.25 1.3749999999950449 0.5625057134954085
v 0.25 1.374999869095351 0.68750571349534
v 0.25 -0.37500000000006856 0.5625001308996939
v 0.25 -0.3750001308997625 0.6875001308996254
v 0 1.312499999995079 0.5625056480455616
v 0 1.3124998690953853 0.687505648045493
v 0 -0.3125000000007573 0.5625008213495408
v 0 -0.3125001309004512 0.6875008213494723
v 0.0625 1.312499999995079 0.5625056480455616
v 0.0625 1.3124998690953853 0.687505648045493
v 0.0625 -0.3125000000007573 0.5625008213495408
v 0.0625 -0.3125001309004512 0.6875008213494723
v -0.125 1.2499999999951132 0.5625055825957146
v -0.125 1.2499998690954195 0.687505582595646
v -0.125 -0.2500000000007916 0.5625008867993878
v -0.125 -0.25000013090048545 0.6875008867993193
v 0 1.2499999999951132 0.5625055825957146
v 0 1.2499998690954195 0.687505582595646
v 0 -0.2500000000007916 0.5625008867993878
v 0 -0.25000013090048545 0.6875008867993193
v -0.1875 1.1874999999958022 0.5625048921458676
v -0.1875 1.1874998690961083 0.6875048921457991
v -0.1875 -0.18750000000082584 0.5625009522492348
v -0.1875 -0.18750013090051976 0.6875009522491662
v -0.125 1.1874999999958022 0.5625048921458676
v -0.125 1.1874998690961083 0.6875048921457991
v -0.125 -0.18750000000082584 0.5625009522492348
v -0.125 -0.18750013090051976 0.6875009522491662
v -0.25 1.1249999999958364 0.5625048266960206
v -0.25 1.1249998690961425 0.6875048266959521
v -0.25 -0.1250000000008601 0.5625010176990817
v -0.25 -0.125000130900554 0.6875010176990132
v -0.1875 1.1249999999958364 0.5625048266960206
v -0.1875 1.1249998690961425 0.6875048266959521
v -0.1875 -0.1250000000008601 0.5625010176990817
v -0.1875 -0.125000130900554 0.6875010176990132
v -0.3125 0.999999999995905 0.5625046957963268
v -0.3125 0.9999998690962111 0.6875046957962583
v -0.3125 -1.5831780331154732e-12 0.5625017735987756
v -0.3125 -1.3090127704007415e-7 0.687501773598707
v -0.25 0.999999999995905 0.5625046957963268
v -0.25 0.9999998690962111 0.6875046957962583
v -0.25 -1.5831780331154732e-12 0.5625017735987756
v -0.25 -1.3090127704007415e-7 0.687501773598707
v -0.375 0.9374999999959392 0.5625046303464798
v -0.375 0.9374998690962453 0.6875046303464113
v -0.375 0.06249999999838263 0.5625018390486225
v -0.375 0.062499869098688654 0.687501839048554
v -0.3125 0.9374999999959392 0.5625046303464798
v -0.3125 0.9374998690962453 0.6875046303464113
v -0.3125 0.06249999999838263 0.5625018390486225
v -0.3125 0.062499869098688654 0.687501839048554
v -0.4375 0.7499999999966966 0.562503808996939
v -0.4375 0.7499998690970027 0.6875038089968705
v -0.4375 0.24999999999827982 0.5625020353981633
v -0.4375 0.24999986909858585 0.6875020353980948
v -0.375 0.7499999999966966 0.562503808996939
v -0.375 0.7499998690970027 0.6875038089968705
v -0.375 0.24999999999827982 0.5625020353981633
v -0.375 0.24999986909858585 0.6875020353980948
v -0.375 0.7499999999966966 0.562503808996939
v -0.375 0.7499998690970027 0.6875038089968705
v -0.375 0.9374999999959392 0.5625046303464798
v -0.375 0.9374998690962453 0.6875046303464113
v -0.25 0.999999999995905 0.5625046957963268
v -0.25 0.9999998690962111 0.6875046957962583
v -0.25 1.1249999999958364 0.5625048266960206
v -0.25 1.1249998690961425 0.6875048266959521
v -0.25 -0.1250000000008601 0.5625010176990817
v -0.25 -0.125000130900554 0.6875010176990132
v -0.25 -1.5831780331154732e-12 0.5625017735987756
v -0.25 -1.3090127704007415e-7 0.687501773598707
v -0.3125 0.9374999999959392 0.5625046303464798
v -0.3125 0.9374998690962453 0.6875046303464113
v -0.3125 0.999999999995905 0.5625046957963268
v -0.3125 0.9999998690962111 0.6875046957962583
v -0.1875 1.1249999999958364 0.5625048266960206
v -0.1875 1.1249998690961425 0.6875048266959521
v -0.1875 1.1874999999958022 0.5625048921458676
v -0.1875 1.1874998690961083 0.6875048921457991
v -0.125 1.1874999999958022 0.5625048921458676
v -0.125 1.1874998690961083 0.6875048921457991
v -0.125 1.2499999999951132 0.5625055825957146
v -0.125 1.2499998690954195 0.687505582595646
v 0 1.2499999999951132 0.5625055825957146
v 0 1.2499998690954195 0.687505582595646
v 0 1.312499999995079 0.5625056480455616
v 0 1.3124998690953853 0.687505648045493
v 0.0625 1.312499999995079 0.5625056480455616
v 0.0625 1.3124998690953853 0.687505648045493
v 0.0625 1.3749999999950449 0.5625057134954085
v 0.0625 1.374999869095351 0.68750571349534
v 0.25 1.3749999999950449 0.5625057134954085
v 0.25 1.374999869095351 0.68750571349534
v 0.25 1.4374999999950104 0.5625057789452554
v 0.25 1.4374998690953167 0.6875057789451868
v 0.25 -0.43750000000003425 0.562500065449847
v 0.25 -0.43750013089972817 0.6875000654497784
v 0.25 -0.37500000000006856 0.5625001308996939
v 0.25 -0.3750001308997625 0.6875001308996254
v 0.0625 -0.37500000000006856 0.5625001308996939
v 0.0625 -0.3750001308997625 0.6875001308996254
v 0.0625 -0.3125000000007573 0.5625008213495408
v 0.0625 -0.3125001309004512 0.6875008213494723
v 0 -0.3125000000007573 0.5625008213495408
v 0 -0.3125001309004512 0.6875008213494723
v 0 -0.2500000000007916 0.5625008867993878
v 0 -0.25000013090048545 0.6875008867993193
v -0.125 -0.2500000000007916 0.5625008867993878
v -0.125 -0.25000013090048545 0.6875008867993193
v -0.125 -0.18750000000082584 0.5625009522492348
v -0.125 -0.18750013090051976 0.6875009522491662
v -0.1875 -0.18750000000082584 0.5625009522492348
v -0.1875 -0.18750013090051976 0.6875009522491662
v -0.1875 -0.1250000000008601 0.5625010176990817
v -0.1875 -0.125000130900554 0.6875010176990132
v -0.3125 -1.5831780331154732e-12 0.5625017735987756
v -0.3125 -1.3090127704007415e-7 0.687501773598707
v -0.3125 0.06249999999838263 0.5625018390486225
v -0.3125 0.062499869098688654 0.687501839048554
v -0.375 0.06249999999838263 0.5625018390486225
v -0.375 0.062499869098688654 0.687501839048554
v -0.375 0.24999999999827982 0.5625020353981633
v -0.375 0.24999986909858585 0.6875020353980948
vt 0.34375 0.9333333333333333
vt 0.59375 0.9333333333333333
vt 0.59375 1
vt 0.34375 1
vt 0.59375 0
vt 0.59375 0.06666666666666665
vt 0.34375 0.06666666666666665
vt 0.34375 0
vt 0.59375 0
vt 0.59375 1
vt 0.34375 1
vt 0.34375 0
vt 0.59375 1
vt 0.34375 1
vt 0.34375 0
vt 0.59375 0
vt 0.59375 0.9333333333333333
vt 0.6875 0.9333333333333333
vt 0.6875 1
vt 0.59375 1
vt 0.6875 0
vt 0.6875 0.06666666666666665
vt 0.59375 0.06666666666666665
vt 0.59375 0
vt 0.6875 0.033333333333333326
vt 0.6875 0.9666666666666667
vt 0.59375 0.9666666666666667
vt 0.59375 0.033333333333333326
vt 0.34375 0.9666666666666667
vt 0.25 0.9666666666666667
vt 0.25 0.033333333333333326
vt 0.34375 0.033333333333333326
vt 0.6875 0.9333333333333333
vt 0.71875 0.9333333333333333
vt 0.71875 1
vt 0.6875 1
vt 0.71875 0
vt 0.71875 0.06666666666666665
vt 0.6875 0.06666666666666665
vt 0.6875 0
vt 0.71875 0.06666666666666665
vt 0.71875 0.9333333333333333
vt 0.6875 0.9333333333333333
vt 0.6875 0.06666666666666665
vt 0.25 0.9333333333333333
vt 0.21875 0.9333333333333333
vt 0.21875 0.06666666666666665
vt 0.25 0.06666666666666665
vt 0.71875 0.9333333333333333
vt 0.78125 0.9333333333333333
vt 0.78125 1
vt 0.71875 1
vt 0.78125 0
vt 0.78125 0.06666666666666665
vt 0.71875 0.06666666666666665
vt 0.71875 0
vt 0.78125 0.09999999999999998
vt 0.78125 0.9
vt 0.71875 0.9
vt 0.71875 0.09999999999999998
vt 0.21875 0.9
vt 0.15625 0.9
vt 0.15625 0.09999999999999998
vt 0.21875 0.09999999999999998
vt 0.78125 0.9333333333333333
vt 0.8125 0.9333333333333333
vt 0.8125 1
vt 0.78125 1
vt 0.8125 0
vt 0.8125 0.06666666666666665
vt 0.78125 0.06666666666666665
vt 0.78125 0
vt 0.8125 0.1333333333333333
vt 0.8125 0.8666666666666667
vt 0.78125 0.8666666666666667
vt 0.78125 0.1333333333333333
vt 0.15625 0.8666666666666667
vt 0.125 0.8666666666666667
vt 0.125 0.1333333333333333
vt 0.15625 0.1333333333333333
vt 0.8125 0.9333333333333333
vt 0.84375 0.9333333333333333
vt 0.84375 1
vt 0.8125 1
vt 0.84375 0
vt 0.84375 0.06666666666666665
vt 0.8125 0.06666666666666665
vt 0.8125 0
vt 0.84375 0.16666666666666663
vt 0.84375 0.8333333333333334
vt 0.8125 0.8333333333333334
vt 0.8125 0.16666666666666663
vt 0.125 0.8333333333333334
vt 0.09375 0.8333333333333334
vt 0.09375 0.16666666666666663
vt 0.125 0.16666666666666663
vt 0.84375 0.9333333333333333
vt 0.875 0.9333333333333333
vt 0.875 1
vt 0.84375 1
vt 0.875 0
vt 0.875 0.06666666666666665
vt 0.84375 0.06666666666666665
vt 0.84375 0
vt 0.875 0.23333333333333328
vt 0.875 0.7666666666666666
vt 0.84375 0.7666666666666666
vt 0.84375 0.23333333333333328
vt 0.09375 0.7666666666666666
vt 0.0625 0.7666666666666666
vt 0.0625 0.23333333333333328
vt 0.09375 0.23333333333333328
vt 0.875 0.9333333333333333
vt 0.90625 0.9333333333333333
vt 0.90625 1
vt 0.875 1
vt 0.90625 0
vt 0.90625 0.06666666666666665
vt 0.875 0.06666666666666665
vt 0.875 0
vt 0.90625 0.2666666666666667
vt 0.90625 0.7333333333333334
vt 0.875 0.7333333333333334
vt 0.875 0.2666666666666667
vt 0.0625 0.7333333333333334
vt 0.03125 0.7333333333333334
vt 0.03125 0.2666666666666667
vt 0.0625 0.2666666666666667
vt 1 0.6333333333333333
vt 0.9375 0.6333333333333333
vt 0.9375 0.3666666666666667
vt 1 0.3666666666666667
vt 0.90625 0.9333333333333333
vt 0.9375 0.9333333333333333
vt 0.9375 1
vt 0.90625 1
vt 0.9375 0
vt 0.9375 0.06666666666666665
vt 0.90625 0.06666666666666665
vt 0.90625 0
vt 0.9375 0.3666666666666667
vt 0.9375 0.6333333333333333
vt 0.90625 0.6333333333333333
vt 0.90625 0.3666666666666667
vt 0.03125 0.6333333333333333
vt 0 0.6333333333333333
vt 0 0.3666666666666667
vt 0.03125 0.3666666666666667
vt 0.9375 0.6333333333333333
vt 1 0.6333333333333333
vt 1 0.7333333333333334
vt 0.9375 0.7333333333333334
vt 0.9375 0.7666666666666666
vt 1 0.7666666666666666
vt 1 0.8333333333333334
vt 0.9375 0.8333333333333334
vt 0.9375 0.16666666666666663
vt 1 0.16666666666666663
vt 1 0.23333333333333328
vt 0.9375 0.23333333333333328
vt 0.9375 0.7
vt 1 0.7
vt 1 0.7333333333333334
vt 0.9375 0.7333333333333334
vt 0.9375 0.8333333333333334
vt 1 0.8333333333333334
vt 1 0.8666666666666667
vt 0.9375 0.8666666666666667
vt 0.9375 0.8666666666666667
vt 1 0.8666666666666667
vt 1 0.9
vt 0.9375 0.9
vt 0.9375 0.9
vt 1 0.9
vt 1 0.9333333333333333
vt 0.9375 0.9333333333333333
vt 0.9375 0.9333333333333333
vt 1 0.9333333333333333
vt 1 0.9666666666666667
vt 0.9375 0.9666666666666667
vt 0.9375 0.9666666666666667
vt 1 0.9666666666666667
vt 1 1
vt 0.9375 1
vt 0.9375 0
vt 1 0
vt 1 0.033333333333333326
vt 0.9375 0.033333333333333326
vt 0.9375 0.033333333333333326
vt 1 0.033333333333333326
vt 1 0.06666666666666665
vt 0.9375 0.06666666666666665
vt 0.9375 0.06666666666666665
vt 1 0.06666666666666665
vt 1 0.09999999999999998
vt 0.9375 0.09999999999999998
vt 0.9375 0.09999999999999998
vt 1 0.09999999999999998
vt 1 0.1333333333333333
vt 0.9375 0.1333333333333333
vt 0.9375 0.1333333333333333
vt 1 0.1333333333333333
vt 1 0.16666666666666663
vt 0.9375 0.16666666666666663
vt 0.9375 0.23333333333333328
vt 1 0.23333333333333328
vt 1 0.2666666666666667
vt 0.9375 0.2666666666666667
vt 0.9375 0.2666666666666667
vt 1 0.2666666666666667
vt 1 0.3666666666666667
vt 0.9375 0.3666666666666667
vt 0.34375 1
vt 0.25 1
vt 0.25 0.9333333333333333
vt 0.34375 0.9333333333333333
vt 0.25 0
vt 0.25 0.06666666666666665
vt 0.34375 0.06666666666666665
vt 0.34375 0
vt 0.6875 0.033333333333333326
vt 0.6875 0.9666666666666667
vt 0.59375 0.9666666666666667
vt 0.59375 0.033333333333333326
vt 0.34375 0.9666666666666667
vt 0.25 0.9666666666666667
vt 0.25 0.033333333333333326
vt 0.34375 0.033333333333333326
vt 0.25 1
vt 0.21875 1
vt 0.21875 0.9333333333333333
vt 0.25 0.9333333333333333
vt 0.25 0
vt 0.25 0.06666666666666665
vt 0.21875 0.06666666666666665
vt 0.21875 0
vt 0.71875 0.06666666666666665
vt 0.71875 0.9333333333333333
vt 0.6875 0.9333333333333333
vt 0.6875 0.06666666666666665
vt 0.25 0.9333333333333333
vt 0.21875 0.9333333333333333
vt 0.21875 0.06666666666666665
vt 0.25 0.06666666666666665
vt 0.21875 1
vt 0.15625 1
vt 0.15625 0.9333333333333333
vt 0.21875 0.9333333333333333
vt 0.15625 0
vt 0.15625 0.06666666666666665
vt 0.21875 0.06666666666666665
vt 0.21875 0
vt 0.78125 0.09999999999999998
vt 0.78125 0.9
vt 0.71875 0.9
vt 0.71875 0.09999999999999998
vt 0.21875 0.9
vt 0.15625 0.9
vt 0.15625 0.09999999999999998
vt 0.21875 0.09999999999999998
vt 0.15625 1
vt 0.125 1
vt 0.125 0.9333333333333333
vt 0.15625 0.9333333333333333
vt 0.15625 0
vt 0.15625 0.06666666666666665
vt 0.125 0.06666666666666665
vt 0.125 0
vt 0.8125 0.1333333333333333
vt 0.8125 0.8666666666666667
vt 0.78125 0.8666666666666667
vt 0.78125 0.1333333333333333
vt 0.15625 0.8666666666666667
vt 0.125 0.8666666666666667
vt 0.125 0.1333333333333333
vt 0.15625 0.1333333333333333
vt 0.125 1
vt 0.09375 1
vt 0.09375 0.9333333333333333
vt 0.125 0.9333333333333333
vt 0.125 0
vt 0.125 0.06666666666666665
vt 0.09375 0.06666666666666665
vt 0.09375 0
vt 0.84375 0.16666666666666663
vt 0.84375 0.8333333333333334
vt 0.8125 0.8333333333333334
vt 0.8125 0.16666666666666663
vt 0.125 0.8333333333333334
vt 0.09375 0.8333333333333334
vt 0.09375 0.16666666666666663
vt 0.125 0.16666666666666663
vt 0.09375 1
vt 0.0625 1
vt 0.0625 0.9333333333333333
vt 0.09375 0.9333333333333333
vt 0.09375 0
vt 0.09375 0.06666666666666665
vt 0.0625 0.06666666666666665
vt 0.0625 0
vt 0.875 0.23333333333333328
vt 0.875 0.7666666666666666
vt 0.84375 0.7666666666666666
vt 0.84375 0.23333333333333328
vt 0.09375 0.7666666666666666
vt 0.0625 0.7666666666666666
vt 0.0625 0.23333333333333328
vt 0.09375 0.23333333333333328
vt 0.0625 1
vt 0.03125 1
vt 0.03125 0.9333333333333333
vt 0.0625 0.9333333333333333
vt 0.0625 0
vt 0.0625 0.06666666666666665
vt 0.03125 0.06666666666666665
vt 0.03125 0
vt 0.90625 0.2666666666666667
vt 0.90625 0.7333333333333334
vt 0.875 0.7333333333333334
vt 0.875 0.2666666666666667
vt 0.0625 0.7333333333333334
vt 0.03125 0.7333333333333334
vt 0.03125 0.2666666666666667
vt 0.0625 0.2666666666666667
vt 1 0.6333333333333333
vt 0.9375 0.6333333333333333
vt 0.9375 0.3666666666666667
vt 1 0.3666666666666667
vt 0.03125 1
vt 0 1
vt 0 0.9333333333333333
vt 0.03125 0.9333333333333333
vt 0.03125 0
vt 0.03125 0.06666666666666665
vt 0 0.06666666666666665
vt 0 0
vt 0.9375 0.3666666666666667
vt 0.9375 0.6333333333333333
vt 0.90625 0.6333333333333333
vt 0.90625 0.3666666666666667
vt 0.03125 0.6333333333333333
vt 0 0.6333333333333333
vt 0 0.3666666666666667
vt 0.03125 0.3666666666666667
vt 0.9375 0.6
vt 1 0.6
vt 1 0.7
vt 0.9375 0.7
vt 0.937496875 0.7666666666666666
vt 0.999996875 0.7666666666666666
vt 1 0.8333333333333334
vt 0.9375 0.8333333333333334
vt 0.9375 0.16666666666666663
vt 1 0.16666666666666663
vt 1 0.23333333333333328
vt 0.9375 0.23333333333333328
vt 0.9375 0.7333333333333334
vt 1 0.7333333333333334
vt 1 0.7666666666666666
vt 0.9375 0.7666666666666666
vt 0.9375 0.8333333333333334
vt 1 0.8333333333333334
vt 1 0.8666666666666667
vt 0.9375 0.8666666666666667
vt 0.9375 0.8666666666666667
vt 1 0.8666666666666667
vt 1 0.9
vt 0.9375 0.9
vt 0.9375 0.9
vt 1 0.9
vt 1 0.9333333333333333
vt 0.9375 0.9333333333333333
vt 0.9375 0.9333333333333333
vt 1 0.9333333333333333
vt 1 0.9666666666666667
vt 0.9375 0.9666666666666667
vt 0.9375 0.9666666666666667
vt 1 0.9666666666666667
vt 1 1
vt 0.9375 1
vt 0.9375 0
vt 1 0
vt 1 0.033333333333333326
vt 0.9375 0.033333333333333326
vt 0.9375 0.033333333333333326
vt 1 0.033333333333333326
vt 1 0.06666666666666665
vt 0.9375 0.06666666666666665
vt 0.9375 0.06666666666666665
vt 1 0.06666666666666665
vt 1 0.09999999999999998
vt 0.9375 0.09999999999999998
vt 0.9375 0.09999999999999998
vt 1 0.09999999999999998
vt 1 0.1333333333333333
vt 0.9375 0.1333333333333333
vt 0.9375 0.1333333333333333
vt 1 0.1333333333333333
vt 1 0.16666666666666663
vt 0.9375 0.16666666666666663
vt 0.9375 0.23333333333333328
vt 1 0.23333333333333328
vt 1 0.2666666666666667
vt 0.9375 0.2666666666666667
vt 0.9375 0.2666666666666667
vt 1 0.2666666666666667
vt 1 0.3666666666666667
vt 0.9375 0.3666666666666667
vn 0 0.9999999999994517 0.0000010471975511964062
vn 0 -0.9999999999994517 -0.0000010471975511964062
vn 0 -0.0000010471975511964062 0.9999999999994517
vn 0 0.0000010471975511964062 -0.9999999999994517
vn 0 0.9999999999994517 0.0000010471975511964062
vn 0 -0.9999999999994517 -0.0000010471975511964062
vn 0 -0.0000010471975511964062 0.9999999999994517
vn 0 0.0000010471975511964062 -0.9999999999994517
vn 0 0.9999999999994517 0.0000010471975511964062
vn 0 -0.9999999999994517 -0.0000010471975511964062
vn 0 -0.0000010471975511964062 0.9999999999994517
vn 0 0.0000010471975511964062 -0.9999999999994517
vn 0 0.9999999999994517 0.0000010471975511964062
vn 0 -0.9999999999994517 -0.0000010471975511964062
vn 0 -0.0000010471975511964062 0.9999999999994517
vn 0 0.0000010471975511964062 -0.9999999999994517
vn 0 0.9999999999994517 0.0000010471975511964062
vn 0 -0.9999999999994517 -0.0000010471975511964062
vn 0 -0.0000010471975511964062 0.9999999999994517
vn 0 0.0000010471975511964062 -0.9999999999994517
vn 0 0.9999999999994517 0.0000010471975511964062
vn 0 -0.9999999999994517 -0.0000010471975511964062
vn 0 -0.0000010471975511964062 0.9999999999994517
vn 0 0.0000010471975511964062 -0.9999999999994517
vn 0 0.9999999999994517 0.0000010471975511964062
vn 0 -0.9999999999994517 -0.0000010471975511964062
vn 0 -0.0000010471975511964062 0.9999999999994517
vn 0 0.0000010471975511964062 -0.9999999999994517
vn 0 0.9999999999994517 0.0000010471975511964062
vn 0 -0.9999999999994517 -0.0000010471975511964062
vn 0 -0.0000010471975511964062 0.9999999999994517
vn 0 0.0000010471975511964062 -0.9999999999994517
vn 1 0 0
vn 0 0.9999999999994517 0.0000010471975511964062
vn 0 -0.9999999999994517 -0.0000010471975511964062
vn 0 -0.0000010471975511964062 0.9999999999994517
vn 0 0.0000010471975511964062 -0.9999999999994517
vn 1 0 0
vn 1 0 0
vn 1 0 0
vn 1 0 0
vn 1 0 0
vn 1 0 0
vn 1 0 0
vn 1 0 0
vn 1 0 0
vn 1 0 0
vn 1 0 0
vn 1 0 0
vn 1 0 0
vn 1 0 0
vn 1 0 0
vn 1 0 0
vn 0 0.9999999999994517 0.0000010471975511964062
vn 0 -0.9999999999994517 -0.0000010471975511964062
vn 0 0.00000319005469404505 -0.9999999999949117
vn 0 -0.000003190054694043228 0.9999999999949117
vn 0 0.9999999999994517 0.0000010471975511964062
vn 0 -0.9999999999994517 -0.0000010471975511964062
vn 0 0.000002970274474266782 -0.9999999999955888
vn 0 -0.0000029702744742623004 0.9999999999955888
vn 0 0.9999999999994517 0.0000010471975511964062
vn 0 -0.9999999999994517 -0.0000010471975511964062
vn 0 0.000003130530884521804 -0.9999999999951
vn 0 -0.000003130530884516949 0.9999999999951
vn 0 0.9999999999994517 0.0000010471975511964062
vn 0 -0.9999999999994517 -0.0000010471975511964062
vn 0 0.0000028653793693724918 -0.9999999999958948
vn 0 -0.000002865379369364217 0.9999999999958948
vn 0 0.9999999999994517 0.0000010471975511964062
vn 0 -0.9999999999994517 -0.0000010471975511964062
vn 0 0.0000030471975511892157 -0.9999999999953573
vn 0 -0.0000030471975511801134 0.9999999999953573
vn 0 0.9999999999994517 0.0000010471975511964062
vn 0 -0.9999999999994517 -0.0000010471975511964062
vn 0 0.0000029221975511902418 -0.9999999999957304
vn 0 -0.00000292219755117477 0.9999999999957304
vn 0 0.9999999999994517 0.0000010471975511964062
vn 0 -0.9999999999994517 -0.0000010471975511964062
vn 0 0.00000319005469404505 -0.9999999999949117
vn 0 -0.000003190054694027367 0.9999999999949117
vn -1 0 0
vn 0 0.9999999999994517 0.0000010471975511964062
vn 0 -0.9999999999994517 -0.0000010471975511964062
vn 0 0.000003547197551183951 -0.9999999999937088
vn 0 -0.0000035471975511448174 0.9999999999937088
vn -1 0 0
vn -1 0 0
vn -1 0 0
vn -1 0 0
vn -1 0 0
vn -1 0 0
vn -1 0 0
vn -1 0 0
vn -1 0 0
vn -1 0 0
vn -1 0 0
vn -1 0 0
vn -1 0 0
vn -1 0 0
vn -1 0 0
vn -1 0 0
usemtl m_20341f5b-b6d7-695f-e0b4-6184f28cd73b
f 5/1/1 1/2/1 2/3/1 6/4/1
f 4/5/2 3/6/2 7/7/2 8/8/2
f 3/9/3 1/10/3 5/11/3 7/12/3
f 6/13/4 2/14/4 4/15/4 8/16/4
f 13/17/5 9/18/5 10/19/5 14/20/5
f 12/21/6 11/22/6 15/23/6 16/24/6
f 11/25/7 9/26/7 13/27/7 15/28/7
f 14/29/8 10/30/8 12/31/8 16/32/8
f 21/33/9 17/34/9 18/35/9 22/36/9
f 20/37/10 19/38/10 23/39/10 24/40/10
f 19/41/11 17/42/11 21/43/11 23/44/11
f 22/45/12 18/46/12 20/47/12 24/48/12
f 29/49/13 25/50/13 26/51/13 30/52/13
f 28/53/14 27/54/14 31/55/14 32/56/14
f 27/57/15 25/58/15 29/59/15 31/60/15
f 30/61/16 26/62/16 28/63/16 32/64/16
f 37/65/17 33/66/17 34/67/17 38/68/17
f 36/69/18 35/70/18 39/71/18 40/72/18
f 35/73/19 33/74/19 37/75/19 39/76/19
f 38/77/20 34/78/20 36/79/20 40/80/20
f 45/81/21 41/82/21 42/83/21 46/84/21
f 44/85/22 43/86/22 47/87/22 48/88/22
f 43/89/23 41/90/23 45/91/23 47/92/23
f 46/93/24 42/94/24 44/95/24 48/96/24
f 53/97/25 49/98/25 50/99/25 54/100/25
f 52/101/26 51/102/26 55/103/26 56/104/26
f 51/105/27 49/106/27 53/107/27 55/108/27
f 54/109/28 50/110/28 52/111/28 56/112/28
f 61/113/29 57/114/29 58/115/29 62/116/29
f 60/117/30 59/118/30 63/119/30 64/120/30
f 59/121/31 57/122/31 61/123/31 63/124/31
f 62/125/32 58/126/32 60/127/32 64/128/32
f 66/129/33 65/130/33 67/131/33 68/132/33
f 69/133/34 65/134/34 66/135/34 70/136/34
f 68/137/35 67/138/35 71/139/35 72/140/35
f 67/141/36 65/142/36 69/143/36 71/144/36
f 70/145/37 66/146/37 68/147/37 72/148/37
f 73/149/38 74/150/38 76/151/38 75/152/38
f 77/153/39 78/154/39 80/155/39 79/156/39
f 81/157/40 82/158/40 84/159/40 83/160/40
f 85/161/41 86/162/41 88/163/41 87/164/41
f 89/165/42 90/166/42 92/167/42 91/168/42
f 93/169/43 94/170/43 96/171/43 95/172/43
f 97/173/44 98/174/44 100/175/44 99/176/44
f 101/177/45 102/178/45 104/179/45 103/180/45
f 105/181/46 106/182/46 108/183/46 107/184/46
f 109/185/47 110/186/47 112/187/47 111/188/47
f 113/189/48 114/190/48 116/191/48 115/192/48
f 117/193/49 118/194/49 120/195/49 119/196/49
f 121/197/50 122/198/50 124/199/50 123/200/50
f 125/201/51 126/202/51 128/203/51 127/204/51
f 129/205/52 130/206/52 132/207/52 131/208/52
f 133/209/53 134/210/53 136/211/53 135/212/53
f 141/213/54 137/214/54 138/215/54 142/216/54
f 140/217/55 139/218/55 143/219/55 144/220/55
f 139/221/56 137/222/56 141/223/56 143/224/56
f 142/225/57 138/226/57 140/227/57 144/228/57
f 149/229/58 145/230/58 146/231/58 150/232/58
f 148/233/59 147/234/59 151/235/59 152/236/59
f 147/237/60 145/238/60 149/239/60 151/240/60
f 150/241/61 146/242/61 148/243/61 152/244/61
f 157/245/62 153/246/62 154/247/62 158/248/62
f 156/249/63 155/250/63 159/251/63 160/252/63
f 155/253/64 153/254/64 157/255/64 159/256/64
f 158/257/65 154/258/65 156/259/65 160/260/65
f 165/261/66 161/262/66 162/263/66 166/264/66
f 164/265/67 163/266/67 167/267/67 168/268/67
f 163/269/68 161/270/68 165/271/68 167/272/68
f 166/273/69 162/274/69 164/275/69 168/276/69
f 173/277/70 169/278/70 170/279/70 174/280/70
f 172/281/71 171/282/71 175/283/71 176/284/71
f 171/285/72 169/286/72 173/287/72 175/288/72
f 174/289/73 170/290/73 172/291/73 176/292/73
f 181/293/74 177/294/74 178/295/74 182/296/74
f 180/297/75 179/298/75 183/299/75 184/300/75
f 179/301/76 177/302/76 181/303/76 183/304/76
f 182/305/77 178/306/77 180/307/77 184/308/77
f 189/309/78 185/310/78 186/311/78 190/312/78
f 188/313/79 187/314/79 191/315/79 192/316/79
f 187/317/80 185/318/80 189/319/80 191/320/80
f 190/321/81 186/322/81 188/323/81 192/324/81
f 194/325/82 193/326/82 195/327/82 196/328/82
f 197/329/83 193/330/83 194/331/83 198/332/83
f 196/333/84 195/334/84 199/335/84 200/336/84
f 195/337/85 193/338/85 197/339/85 199/340/85
f 198/341/86 194/342/86 196/343/86 200/344/86
f 201/345/87 202/346/87 204/347/87 203/348/87
f 205/349/88 206/350/88 208/351/88 207/352/88
f 209/353/89 210/354/89 212/355/89 211/356/89
f 213/357/90 214/358/90 216/359/90 215/360/90
f 217/361/91 218/362/91 220/363/91 219/364/91
f 221/365/92 222/366/92 224/367/92 223/368/92
f 225/369/93 226/370/93 228/371/93 227/372/93
f 229/373/94 230/374/94 232/375/94 231/376/94
f 233/377/95 234/378/95 236/379/95 235/380/95
f 237/381/96 238/382/96 240/383/96 239/384/96
f 241/385/97 242/386/97 244/387/97 243/388/97
f 245/389/98 246/390/98 248/391/98 247/392/98
f 249/393/99 250/394/99 252/395/99 251/396/99
f 253/397/100 254/398/100 256/399/100 255/400/100
f 257/401/101 258/402/101 260/403/101 259/404/101
f 261/405/102 262/406/102 264/407/102 263/408/102
g knob
v 0.53125 0.53125 0.5625
v 0.53125 0.53125 0.5
v 0.53125 0.46875 0.5625
v 0.53125 0.46875 0.5
v 0.46875 0.53125 0.5625
v 0.46875 0.53125 0.5
v 0.46875 0.46875 0.5625
v 0.46875 0.46875 0.5
v 0.5625 0.5625 0.5
v 0.5625 0.5625 0.4375
v 0.5625 0.4375 0.5
v 0.5625 0.4375 0.4375
v 0.4375 0.5625 0.5
v 0.4375 0.5625 0.4375
v 0.4375 0.4375 0.5
v 0.4375 0.4375 0.4375
v 0.4687500000000013 0.5312500624994376 0.6875005625000626
v 0.46875000000000105 0.5312499374994376 0.7500005624999376
v 0.468750000000001 0.4687500624995627 0.6875004375000626
v 0.4687500000000008 0.4687499374995626 0.7500004374999376
v 0.5312500000000012 0.5312500624994374 0.6875005625000629
v 0.531250000000001 0.5312499374994374 0.7500005624999379
v 0.531250000000001 0.4687500624995624 0.6875004375000628
v 0.5312500000000008 0.46874993749956234 0.7500004374999378
v 0.43750000000000117 0.5624999374993753 0.7500006249999376
v 0.43750000000000094 0.5624998124993752 0.8125006249998126
v 0.43750000000000067 0.43749993749962524 0.7500003749999374
v 0.43750000000000044 0.4374998124996252 0.8125003749998124
v 0.5625000000000011 0.5624999374993747 0.750000624999938
v 0.5625000000000009 0.5624998124993746 0.812500624999813
v 0.5625000000000007 0.43749993749962474 0.7500003749999379
v 0.5625000000000004 0.43749981249962466 0.8125003749998129
vt 0.5625 0.75
vt 0.5 0.75
vt 0.5 0.6875
vt 0.5625 0.6875
vt 0.375 0.8125
vt 0.375 0.875
vt 0.3125 0.875
vt 0.3125 0.8125
vt 0.3125 0.8125
vt 0.375 0.8125
vt 0.375 0.875
vt 0.3125 0.875
vt 0.5625 0.0625
vt 0.5625 0.125
vt 0.5 0.125
vt 0.5 0.0625
vt 0.25 1
vt 0 1
vt 0 0.5
vt 0.25 0.5
vt 0.5625 0.75
vt 0.5 0.75
vt 0.5 0.625
vt 0.5625 0.625
vt 0.25 0.375
vt 0.25 0.5
vt 0.1875 0.5
vt 0.1875 0.375
vt 0.25 0.6875
vt 0.375 0.6875
vt 0.375 0.75
vt 0.25 0.75
vt 0.5625 0.125
vt 0.5625 0.1875
vt 0.4375 0.1875
vt 0.4375 0.125
vt 0.5 0.5
vt 0.5 0.625
vt 0.375 0.625
vt 0.375 0.5
vt 0.375 0.25
vt 0.25 0.25
vt 0.25 0.125
vt 0.375 0.125
vt 0.5625 0.75
vt 0.5 0.75
vt 0.5 0.6875
vt 0.5625 0.6875
vt 0.375 0.8125
vt 0.375 0.875
vt 0.3125 0.875
vt 0.3125 0.8125
vt 0.3125 0.8125
vt 0.375 0.8125
vt 0.375 0.875
vt 0.3125 0.875
vt 0.5625 0.0625
vt 0.5625 0.125
vt 0.5 0.125
vt 0.5 0.0625
vt 0.25 1
vt 0 1
vt 0 0.5
vt 0.25 0.5
vt 0.5625 0.75
vt 0.5 0.75
vt 0.5 0.625
vt 0.5625 0.625
vt 0.25 0.375
vt 0.25 0.5
vt 0.1875 0.5
vt 0.1875 0.375
vt 0.25 0.6875
vt 0.375 0.6875
vt 0.375 0.75
vt 0.25 0.75
vt 0.5625 0.125
vt 0.5625 0.1875
vt 0.4375 0.1875
vt 0.4375 0.125
vt 0.5 0.5
vt 0.5 0.625
vt 0.375 0.625
vt 0.375 0.5
vt 0.375 0.25
vt 0.25 0.25
vt 0.25 0.125
vt 0.375 0.125
vn 1 0 0
vn -1 0 0
vn 0 1 0
vn 0 -1 0
vn 0 0 -1
vn 1 0 0
vn -1 0 0
vn 0 1 0
vn 0 -1 0
vn 0 0 1
vn 0 0 -1
vn -1 4.440899203919108e-15 -3.552704797009198e-15
vn 1 -3.552720784220755e-15 3.5527065733660375e-15
vn 3.5527065733660402e-15 0.999999999998 0.0000020000000002795564
vn -4.440885322237049e-15 -0.999999999998 -0.0000020000000011677348
vn -3.5527207842207574e-15 -0.0000020000000002795564 0.999999999998
vn -1 3.9968099940699294e-15 -3.552705685187611e-15
vn 1 -3.55272078422076e-15 3.5527065733660375e-15
vn 5.3290634127627306e-15 0.999999999998 0.000002000000002055913
vn -3.9967959006287495e-15 -0.999999999998 -0.0000020000000002795564
vn 3.5527246902288144e-15 0.000002000000001167733 -0.999999999998
vn -3.5527225605775994e-15 -0.0000020000000011677348 0.999999999998
usemtl m_d6bd9886-4abf-de1f-e48d-1787d3b80fb2
f 266/409/103 265/410/103 267/411/103 268/412/103
f 271/413/104 269/414/104 270/415/104 272/416/104
f 269/417/105 265/418/105 266/419/105 270/420/105
f 268/421/106 267/422/106 271/423/106 272/424/106
f 270/425/107 266/426/107 268/427/107 272/428/107
f 274/429/108 273/430/108 275/431/108 276/432/108
f 279/433/109 277/434/109 278/435/109 280/436/109
f 277/437/110 273/438/110 274/439/110 278/440/110
f 276/441/111 275/442/111 279/443/111 280/444/111
f 275/445/112 273/446/112 277/447/112 279/448/112
f 278/449/113 274/450/113 276/451/113 280/452/113
f 282/453/114 281/454/114 283/455/114 284/456/114
f 287/457/115 285/458/115 286/459/115 288/460/115
f 285/461/116 281/462/116 282/463/116 286/464/116
f 284/465/117 283/466/117 287/467/117 288/468/117
f 286/469/118 282/470/118 284/471/118 288/472/118
f 290/473/119 289/474/119 291/475/119 292/476/119
f 295/477/120 293/478/120 294/479/120 296/480/120
f 293/481/121 289/482/121 290/483/121 294/484/121
f 292/485/122 291/486/122 295/487/122 296/488/122
f 291/489/123 289/490/123 293/491/123 295/492/123
f 294/493/124 290/494/124 292/495/124 296/496/124
