# Made in Blockbench 5.1.6
mtllib hobbit_window.mtl

g mat b
v 0.125 0.375 -0.4375
v 0.125 0.375 -0.1875
v 0.125 0.4375 -0.1875
v 0.125 0.4375 -0.4375
v -0.125 0.375 -0.4375
v -0.125 0.375 -0.1875
v -0.125 0.4375 -0.1875
v -0.125 0.4375 -0.4375
v 0.25 0.3125 -0.4375
v 0.25 0.3125 -0.1875
v 0.25 0.375 -0.1875
v 0.25 0.375 -0.4375
v 0.125 0.3125 -0.4375
v 0.125 0.3125 -0.1875
v 0.125 0.375 -0.1875
v 0.125 0.375 -0.4375
v -0.125 0.3125 -0.4375
v -0.125 0.3125 -0.1875
v -0.125 0.375 -0.1875
v -0.125 0.375 -0.4375
v -0.25 0.3125 -0.4375
v -0.25 0.3125 -0.1875
v -0.25 0.375 -0.1875
v -0.25 0.375 -0.4375
v 0.3125 0.25 -0.4375
v 0.3125 0.25 -0.1875
v 0.3125 0.3125 -0.1875
v 0.3125 0.3125 -0.4375
v 0.25 0.25 -0.4375
v 0.25 0.25 -0.1875
v 0.25 0.3125 -0.1875
v 0.25 0.3125 -0.4375
v -0.25 0.25 -0.4375
v -0.25 0.25 -0.1875
v -0.25 0.3125 -0.1875
v -0.25 0.3125 -0.4375
v -0.3125 0.25 -0.4375
v -0.3125 0.25 -0.1875
v -0.3125 0.3125 -0.1875
v -0.3125 0.3125 -0.4375
v 0.375 0.125 -0.4375
v 0.375 0.125 -0.1875
v 0.375 0.25 -0.1875
v 0.375 0.25 -0.4375
v 0.3125 0.125 -0.4375
v 0.3125 0.125 -0.1875
v 0.3125 0.25 -0.1875
v 0.3125 0.25 -0.4375
v -0.3125 0.125 -0.4375
v -0.3125 0.125 -0.1875
v -0.3125 0.25 -0.1875
v -0.3125 0.25 -0.4375
v -0.375 0.125 -0.4375
v -0.375 0.125 -0.1875
v -0.375 0.25 -0.1875
v -0.375 0.25 -0.4375
v 0.4375 -0.125 -0.4375
v 0.4375 -0.125 -0.1875
v 0.4375 0.125 -0.1875
v 0.4375 0.125 -0.4375
v 0.375 -0.125 -0.4375
v 0.375 -0.125 -0.1875
v 0.375 0.125 -0.1875
v 0.375 0.125 -0.4375
v -0.375 -0.125 -0.4375
v -0.375 -0.125 -0.1875
v -0.375 0.125 -0.1875
v -0.375 0.125 -0.4375
v -0.4375 -0.125 -0.4375
v -0.4375 -0.125 -0.1875
v -0.4375 0.125 -0.1875
v -0.4375 0.125 -0.4375
v 0.375 -0.25 -0.4375
v 0.375 -0.25 -0.1875
v 0.375 -0.125 -0.1875
v 0.375 -0.125 -0.4375
v 0.3125 -0.25 -0.4375
v 0.3125 -0.25 -0.1875
v 0.3125 -0.125 -0.1875
v 0.3125 -0.125 -0.4375
v -0.3125 -0.25 -0.4375
v -0.3125 -0.25 -0.1875
v -0.3125 -0.125 -0.1875
v -0.3125 -0.125 -0.4375
v -0.375 -0.25 -0.4375
v -0.375 -0.25 -0.1875
v -0.375 -0.125 -0.1875
v -0.375 -0.125 -0.4375
v 0.3125 -0.3125 -0.4375
v 0.3125 -0.3125 -0.1875
v 0.3125 -0.25 -0.1875
v 0.3125 -0.25 -0.4375
v 0.25 -0.3125 -0.4375
v 0.25 -0.3125 -0.1875
v 0.25 -0.25 -0.1875
v 0.25 -0.25 -0.4375
v -0.25 -0.3125 -0.4375
v -0.25 -0.3125 -0.1875
v -0.25 -0.25 -0.1875
v -0.25 -0.25 -0.4375
v -0.3125 -0.3125 -0.4375
v -0.3125 -0.3125 -0.1875
v -0.3125 -0.25 -0.1875
v -0.3125 -0.25 -0.4375
v 0.25 -0.375 -0.4375
v 0.25 -0.375 -0.1875
v 0.25 -0.3125 -0.1875
v 0.25 -0.3125 -0.4375
v 0.125 -0.375 -0.4375
v 0.125 -0.375 -0.1875
v 0.125 -0.3125 -0.1875
v 0.125 -0.3125 -0.4375
v -0.125 -0.375 -0.4375
v -0.125 -0.375 -0.1875
v -0.125 -0.3125 -0.1875
v -0.125 -0.3125 -0.4375
v -0.25 -0.375 -0.4375
v -0.25 -0.375 -0.1875
v -0.25 -0.3125 -0.1875
v -0.25 -0.3125 -0.4375
v 0.125 -0.4375 -0.4375
v 0.125 -0.4375 -0.1875
v 0.125 -0.375 -0.1875
v 0.125 -0.375 -0.4375
v -0.125 -0.4375 -0.4375
v -0.125 -0.4375 -0.1875
v -0.125 -0.375 -0.1875
v -0.125 -0.375 -0.4375
v 0.0625 -0.375 -0.375
v 0.0625 -0.375 -0.25
v 0.0625 0.375 -0.25
v 0.0625 0.375 -0.375
v -0.0625 -0.375 -0.375
v -0.0625 -0.375 -0.25
v -0.0625 0.375 -0.25
v -0.0625 0.375 -0.375
v 0.375 -0.0625 -0.375
v 0.375 -0.0625 -0.25
v 0.375 0.0625 -0.25
v 0.375 0.0625 -0.375
v 0.0625 -0.0625 -0.375
v 0.0625 -0.0625 -0.25
v 0.0625 0.0625 -0.25
v 0.0625 0.0625 -0.375
v -0.0625 -0.0625 -0.375
v -0.0625 -0.0625 -0.25
v -0.0625 0.0625 -0.25
v -0.0625 0.0625 -0.375
v -0.375 -0.0625 -0.375
v -0.375 -0.0625 -0.25
v -0.375 0.0625 -0.25
v -0.375 0.0625 -0.375
vt 0.375 0.875
vt 0.375 0.9375
vt 0.625 0.9375
vt 0.625 0.875
vt 0.625 0.875
vt 0.625 0.9375
vt 0.375 0.9375
vt 0.375 0.875
vt 0.625 0.75
vt 0.625 1
vt 0.375 1
vt 0.375 0.75
vt 0 0.75
vt 0.25 0.75
vt 0.25 0.8125
vt 0 0.8125
vt 0.25 0.8125
vt 0.25 0.875
vt 0.375 0.875
vt 0.375 0.8125
vt 0.75 0.8125
vt 0.75 0.875
vt 0.625 0.875
vt 0.625 0.8125
vt 0.375 0.75
vt 0.375 1
vt 0.25 1
vt 0.25 0.75
vt 1 0.8125
vt 0.75 0.8125
vt 0.75 0.875
vt 1 0.875
vt 0.625 0.8125
vt 0.625 0.875
vt 0.75 0.875
vt 0.75 0.8125
vt 0.375 0.8125
vt 0.375 0.875
vt 0.25 0.875
vt 0.25 0.8125
vt 0.75 0.75
vt 0.75 1
vt 0.625 1
vt 0.625 0.75
vt 0 0.6875
vt 0.25 0.6875
vt 0.25 0.75
vt 0 0.75
vt 0.25 0.75
vt 0.25 0.8125
vt 0.1875 0.8125
vt 0.1875 0.75
vt 0.8125 0.75
vt 0.8125 0.8125
vt 0.75 0.8125
vt 0.75 0.75
vt 0.25 0.75
vt 0.25 1
vt 0.1875 1
vt 0.1875 0.75
vt 1 0.75
vt 0.75 0.75
vt 0.75 0.8125
vt 1 0.8125
vt 0.8125 0.75
vt 0.8125 0.8125
vt 0.75 0.8125
vt 0.75 0.75
vt 0.25 0.75
vt 0.25 0.8125
vt 0.1875 0.8125
vt 0.1875 0.75
vt 0.8125 0.75
vt 0.8125 1
vt 0.75 1
vt 0.75 0.75
vt 0 0.5
vt 0.25 0.5
vt 0.25 0.625
vt 0 0.625
vt 0.1875 0.625
vt 0.1875 0.75
vt 0.125 0.75
vt 0.125 0.625
vt 0.875 0.625
vt 0.875 0.75
vt 0.8125 0.75
vt 0.8125 0.625
vt 0.1875 0.75
vt 0.1875 1
vt 0.125 1
vt 0.125 0.75
vt 1 0.5
vt 0.75 0.5
vt 0.75 0.625
vt 1 0.625
vt 0.875 0.625
vt 0.875 0.75
vt 0.8125 0.75
vt 0.8125 0.625
vt 0.1875 0.625
vt 0.1875 0.75
vt 0.125 0.75
vt 0.125 0.625
vt 0.875 0.75
vt 0.875 1
vt 0.8125 1
vt 0.8125 0.75
vt 0 0.375
vt 0.25 0.375
vt 0.25 0.625
vt 0 0.625
vt 0.125 0.375
vt 0.125 0.625
vt 0.0625 0.625
vt 0.0625 0.375
vt 0.9375 0.375
vt 0.9375 0.625
vt 0.875 0.625
vt 0.875 0.375
vt 1 0.375
vt 0.75 0.375
vt 0.75 0.625
vt 1 0.625
vt 0.9375 0.375
vt 0.9375 0.625
vt 0.875 0.625
vt 0.875 0.375
vt 0.125 0.375
vt 0.125 0.625
vt 0.0625 0.625
vt 0.0625 0.375
vt 0 0.25
vt 0.25 0.25
vt 0.25 0.375
vt 0 0.375
vt 0.1875 0.25
vt 0.1875 0.375
vt 0.125 0.375
vt 0.125 0.25
vt 0.875 0.25
vt 0.875 0.375
vt 0.8125 0.375
vt 0.8125 0.25
vt 0.1875 0.1875
vt 0.1875 0.4375
vt 0.125 0.4375
vt 0.125 0.1875
vt 0.9375 0.25
vt 0.6875 0.25
vt 0.6875 0.375
vt 0.9375 0.375
vt 0.875 0.25
vt 0.875 0.375
vt 0.8125 0.375
vt 0.8125 0.25
vt 0.1875 0.25
vt 0.1875 0.375
vt 0.125 0.375
vt 0.125 0.25
vt 0.875 0.1875
vt 0.875 0.4375
vt 0.8125 0.4375
vt 0.8125 0.1875
vt 0 0.1875
vt 0.25 0.1875
vt 0.25 0.25
vt 0 0.25
vt 0.25 0.1875
vt 0.25 0.25
vt 0.1875 0.25
vt 0.1875 0.1875
vt 0.8125 0.1875
vt 0.8125 0.25
vt 0.75 0.25
vt 0.75 0.1875
vt 0.25 0.1875
vt 0.25 0.4375
vt 0.1875 0.4375
vt 0.1875 0.1875
vt 1 0.1875
vt 0.75 0.1875
vt 0.75 0.25
vt 1 0.25
vt 0.8125 0.1875
vt 0.8125 0.25
vt 0.75 0.25
vt 0.75 0.1875
vt 0.25 0.1875
vt 0.25 0.25
vt 0.1875 0.25
vt 0.1875 0.1875
vt 0.8125 0.1875
vt 0.8125 0.4375
vt 0.75 0.4375
vt 0.75 0.1875
vt 0 0.0625
vt 0.25 0.0625
vt 0.25 0.125
vt 0 0.125
vt 0.25 0.125
vt 0.25 0.1875
vt 0.375 0.1875
vt 0.375 0.125
vt 0.75 0.125
vt 0.75 0.1875
vt 0.625 0.1875
vt 0.625 0.125
vt 0.375 0.1875
vt 0.375 0.4375
vt 0.25 0.4375
vt 0.25 0.1875
vt 1 0.0625
vt 0.75 0.0625
vt 0.75 0.125
vt 1 0.125
vt 0.625 0.125
vt 0.625 0.1875
vt 0.75 0.1875
vt 0.75 0.125
vt 0.375 0.125
vt 0.375 0.1875
vt 0.25 0.1875
vt 0.25 0.125
vt 0.75 0.1875
vt 0.75 0.4375
vt 0.625 0.4375
vt 0.625 0.1875
vt 0.375 0.0625
vt 0.375 0.125
vt 0.625 0.125
vt 0.625 0.0625
vt 0.625 0.0625
vt 0.625 0.125
vt 0.375 0.125
vt 0.375 0.0625
vt 0.625 0.1875
vt 0.625 0.4375
vt 0.375 0.4375
vt 0.375 0.1875
vt 0.4375 0.125
vt 0.3125 0.125
vt 0.3125 0.875
vt 0.4375 0.875
vt 0.5625 0.125
vt 0.6875 0.125
vt 0.6875 0.875
vt 0.5625 0.875
vt 0.4375 0.125
vt 0.4375 0.875
vt 0.5625 0.875
vt 0.5625 0.125
vt 0.5625 0.125
vt 0.5625 0.875
vt 0.4375 0.875
vt 0.4375 0.125
vt 0 1
vt 0 1
vt 0 1
vt 0 1
vt 0 1
vt 0 1
vt 0 1
vt 0 1
vt 0 1
vt 0 1
vt 0 1
vt 0 1
vt 0.125 0.4375
vt 0.125 0.5625
vt 0.4375 0.5625
vt 0.4375 0.4375
vt 0.875 0.4375
vt 0.875 0.5625
vt 0.5625 0.5625
vt 0.5625 0.4375
vt 0 1
vt 0 1
vt 0 1
vt 0 1
vt 0.4375 0.5
vt 0.4375 0.625
vt 0.125 0.625
vt 0.125 0.5
vt 0 1
vt 0 1
vt 0 1
vt 0 1
vt 0.5625 0.4375
vt 0.5625 0.5625
vt 0.875 0.5625
vt 0.875 0.4375
vt 0.4375 0.4375
vt 0.4375 0.5625
vt 0.125 0.5625
vt 0.125 0.4375
vt 0 1
vt 0 1
vt 0 1
vt 0 1
vt 0.8125 0.5
vt 0.8125 0.625
vt 0.5 0.625
vt 0.5 0.5
vn 0 0 1
vn 0 0 1
vn 0 -1 0
vn -1 0 0
vn 0 0 1
vn 0 0 1
vn 0 -1 0
vn -1 0 0
vn 0 0 1
vn 0 0 1
vn 0 -1 0
vn -1 0 0
vn 0 0 1
vn 0 0 1
vn 0 -1 0
vn -1 0 0
vn 0 0 1
vn 0 0 1
vn 0 -1 0
vn -1 0 0
vn 0 0 1
vn 0 0 1
vn 0 -1 0
vn -1 0 0
vn 0 0 1
vn 0 0 1
vn 0 -1 0
vn -1 0 0
vn 0 0 1
vn 0 0 1
vn -1 0 0
vn 0 0 1
vn 0 0 1
vn -1 0 0
vn 0 0 1
vn 0 0 1
vn 0 -1 0
vn -1 0 0
vn 0 0 1
vn 0 0 1
vn 0 -1 0
vn -1 0 0
vn 0 0 1
vn 0 0 1
vn 0 -1 0
vn -1 0 0
vn 0 0 1
vn 0 0 1
vn 0 -1 0
vn -1 0 0
vn 0 0 1
vn 0 0 1
vn 0 -1 0
vn -1 0 0
vn 0 0 1
vn 0 0 1
vn 0 -1 0
vn 0 0 1
vn 0 0 1
vn 0 -1 0
vn -1 0 0
vn -1 0 0
vn 0 0 1
vn 0 0 1
vn 0 -1 0
vn 0 -1 0
vn -1 0 0
vn 0 0 1
vn 0 0 1
vn 0 -1 0
vn 0 -1 0
vn -1 0 0
vn 0 0 1
vn 0 0 1
vn 0 -1 0
vn 0 -1 0
usemtl m_fb9bbeb2-233d-e845-6bd0-d57fd646d566
f 1/1/1 4/2/1 8/3/1 5/4/1
f 2/5/2 3/6/2 7/7/2 6/8/2
f 1/9/3 2/10/3 6/11/3 5/12/3
f 13/13/4 14/14/4 15/15/4 16/16/4
f 9/17/5 12/18/5 16/19/5 13/20/5
f 10/21/6 11/22/6 15/23/6 14/24/6
f 9/25/7 10/26/7 14/27/7 13/28/7
f 17/29/8 18/30/8 19/31/8 20/32/8
f 17/33/9 20/34/9 24/35/9 21/36/9
f 18/37/10 19/38/10 23/39/10 22/40/10
f 17/41/11 18/42/11 22/43/11 21/44/11
f 29/45/12 30/46/12 31/47/12 32/48/12
f 25/49/13 28/50/13 32/51/13 29/52/13
f 26/53/14 27/54/14 31/55/14 30/56/14
f 25/57/15 26/58/15 30/59/15 29/60/15
f 33/61/16 34/62/16 35/63/16 36/64/16
f 33/65/17 36/66/17 40/67/17 37/68/17
f 34/69/18 35/70/18 39/71/18 38/72/18
f 33/73/19 34/74/19 38/75/19 37/76/19
f 45/77/20 46/78/20 47/79/20 48/80/20
f 41/81/21 44/82/21 48/83/21 45/84/21
f 42/85/22 43/86/22 47/87/22 46/88/22
f 41/89/23 42/90/23 46/91/23 45/92/23
f 49/93/24 50/94/24 51/95/24 52/96/24
f 49/97/25 52/98/25 56/99/25 53/100/25
f 50/101/26 51/102/26 55/103/26 54/104/26
f 49/105/27 50/106/27 54/107/27 53/108/27
f 61/109/28 62/110/28 63/111/28 64/112/28
f 57/113/29 60/114/29 64/115/29 61/116/29
f 58/117/30 59/118/30 63/119/30 62/120/30
f 65/121/31 66/122/31 67/123/31 68/124/31
f 65/125/32 68/126/32 72/127/32 69/128/32
f 66/129/33 67/130/33 71/131/33 70/132/33
f 77/133/34 78/134/34 79/135/34 80/136/34
f 73/137/35 76/138/35 80/139/35 77/140/35
f 74/141/36 75/142/36 79/143/36 78/144/36
f 76/145/37 75/146/37 79/147/37 80/148/37
f 81/149/38 82/150/38 83/151/38 84/152/38
f 81/153/39 84/154/39 88/155/39 85/156/39
f 82/157/40 83/158/40 87/159/40 86/160/40
f 84/161/41 83/162/41 87/163/41 88/164/41
f 93/165/42 94/166/42 95/167/42 96/168/42
f 89/169/43 92/170/43 96/171/43 93/172/43
f 90/173/44 91/174/44 95/175/44 94/176/44
f 92/177/45 91/178/45 95/179/45 96/180/45
f 97/181/46 98/182/46 99/183/46 100/184/46
f 97/185/47 100/186/47 104/187/47 101/188/47
f 98/189/48 99/190/48 103/191/48 102/192/48
f 100/193/49 99/194/49 103/195/49 104/196/49
f 109/197/50 110/198/50 111/199/50 112/200/50
f 105/201/51 108/202/51 112/203/51 109/204/51
f 106/205/52 107/206/52 111/207/52 110/208/52
f 108/209/53 107/210/53 111/211/53 112/212/53
f 113/213/54 114/214/54 115/215/54 116/216/54
f 113/217/55 116/218/55 120/219/55 117/220/55
f 114/221/56 115/222/56 119/223/56 118/224/56
f 116/225/57 115/226/57 119/227/57 120/228/57
f 121/229/58 124/230/58 128/231/58 125/232/58
f 122/233/59 123/234/59 127/235/59 126/236/59
f 124/237/60 123/238/60 127/239/60 128/240/60
f 129/241/61 130/242/61 131/243/61 132/244/61
f 133/245/62 134/246/62 135/247/62 136/248/62
f 129/249/63 132/250/63 136/251/63 133/252/63
f 130/253/64 131/254/64 135/255/64 134/256/64
f 129/257/65 130/258/65 134/259/65 133/260/65
f 132/261/66 131/262/66 135/263/66 136/264/66
f 137/265/67 138/266/67 139/267/67 140/268/67
f 137/269/68 140/270/68 144/271/68 141/272/68
f 138/273/69 139/274/69 143/275/69 142/276/69
f 137/277/70 138/278/70 142/279/70 141/280/70
f 140/281/71 139/282/71 143/283/71 144/284/71
f 149/285/72 150/286/72 151/287/72 152/288/72
f 145/289/73 148/290/73 152/291/73 149/292/73
f 146/293/74 147/294/74 151/295/74 150/296/74
f 145/297/75 146/298/75 150/299/75 149/300/75
f 148/301/76 147/302/76 151/303/76 152/304/76
g mat a
v 0.375 0.375 -0.5
v 0.375 0.375 -0.125
v 0.375 0.4375 -0.125
v 0.375 0.4375 -0.5
v 0.125 0.375 -0.5
v 0.125 0.375 -0.125
v 0.125 0.4375 -0.125
v 0.125 0.4375 -0.5
v -0.375 0.375 -0.5
v -0.375 0.375 -0.125
v -0.375 0.4375 -0.125
v -0.375 0.4375 -0.5
v -0.125 0.375 -0.5
v -0.125 0.375 -0.125
v -0.125 0.4375 -0.125
v -0.125 0.4375 -0.5
v 0.375 -0.4375 -0.5
v 0.375 -0.4375 -0.125
v 0.375 -0.375 -0.125
v 0.375 -0.375 -0.5
v 0.125 -0.4375 -0.5
v 0.125 -0.4375 -0.125
v 0.125 -0.375 -0.125
v 0.125 -0.375 -0.5
v -0.375 -0.4375 -0.5
v -0.375 -0.4375 -0.125
v -0.375 -0.375 -0.125
v -0.375 -0.375 -0.5
v -0.125 -0.4375 -0.5
v -0.125 -0.4375 -0.125
v -0.125 -0.375 -0.125
v -0.125 -0.375 -0.5
v 0.4375 -0.4375 -0.5
v 0.4375 -0.4375 -0.125
v 0.4375 -0.125 -0.125
v 0.4375 -0.125 -0.5
v 0.375 -0.4375 -0.5
v 0.375 -0.4375 -0.125
v 0.375 -0.125 -0.125
v 0.375 -0.125 -0.5
v -0.375 -0.4375 -0.5
v -0.375 -0.4375 -0.125
v -0.375 -0.125 -0.125
v -0.375 -0.125 -0.5
v -0.4375 -0.4375 -0.5
v -0.4375 -0.4375 -0.125
v -0.4375 -0.125 -0.125
v -0.4375 -0.125 -0.5
v -0.375 0.125 -0.5
v -0.375 0.125 -0.125
v -0.375 0.4375 -0.125
v -0.375 0.4375 -0.5
v -0.4375 0.125 -0.5
v -0.4375 0.125 -0.125
v -0.4375 0.4375 -0.125
v -0.4375 0.4375 -0.5
v 0.4375 0.125 -0.5
v 0.4375 0.125 -0.125
v 0.4375 0.4375 -0.125
v 0.4375 0.4375 -0.5
v 0.375 0.125 -0.5
v 0.375 0.125 -0.125
v 0.375 0.4375 -0.125
v 0.375 0.4375 -0.5
v 0.375 0.3125 -0.5
v 0.375 0.3125 -0.125
v 0.375 0.375 -0.125
v 0.375 0.375 -0.5
v 0.25 0.3125 -0.5
v 0.25 0.3125 -0.125
v 0.25 0.375 -0.125
v 0.25 0.375 -0.5
v -0.375 0.3125 -0.5
v -0.375 0.3125 -0.125
v -0.375 0.375 -0.125
v -0.375 0.375 -0.5
v -0.25 0.3125 -0.5
v -0.25 0.3125 -0.125
v -0.25 0.375 -0.125
v -0.25 0.375 -0.5
v -0.375 0.25 -0.5
v -0.375 0.25 -0.125
v -0.375 0.3125 -0.125
v -0.375 0.3125 -0.5
v -0.3125 0.25 -0.5
v -0.3125 0.25 -0.125
v -0.3125 0.3125 -0.125
v -0.3125 0.3125 -0.5
v 0.375 0.25 -0.5
v 0.375 0.25 -0.125
v 0.375 0.3125 -0.125
v 0.375 0.3125 -0.5
v 0.3125 0.25 -0.5
v 0.3125 0.25 -0.125
v 0.3125 0.3125 -0.125
v 0.3125 0.3125 -0.5
v -0.375 -0.3125 -0.5
v -0.375 -0.3125 -0.125
v -0.375 -0.25 -0.125
v -0.375 -0.25 -0.5
v -0.3125 -0.3125 -0.5
v -0.3125 -0.3125 -0.125
v -0.3125 -0.25 -0.125
v -0.3125 -0.25 -0.5
v -0.375 -0.375 -0.5
v -0.375 -0.375 -0.125
v -0.375 -0.3125 -0.125
v -0.375 -0.3125 -0.5
v -0.25 -0.375 -0.5
v -0.25 -0.375 -0.125
v -0.25 -0.3125 -0.125
v -0.25 -0.3125 -0.5
v 0.375 -0.3125 -0.5
v 0.375 -0.3125 -0.125
v 0.375 -0.25 -0.125
v 0.375 -0.25 -0.5
v 0.3125 -0.3125 -0.5
v 0.3125 -0.3125 -0.125
v 0.3125 -0.25 -0.125
v 0.3125 -0.25 -0.5
v 0.375 -0.375 -0.5
v 0.375 -0.375 -0.125
v 0.375 -0.3125 -0.125
v 0.375 -0.3125 -0.5
v 0.25 -0.375 -0.5
v 0.25 -0.375 -0.125
v 0.25 -0.3125 -0.125
v 0.25 -0.3125 -0.5
v 0.5 0.4375 -0.5
v 0.5 0.4375 -0.125
v 0.5 0.5 -0.125
v 0.5 0.5 -0.5
v -0.5 0.4375 -0.5
v -0.5 0.4375 -0.125
v -0.5 0.5 -0.125
v -0.5 0.5 -0.5
v 0.5 -0.5 -0.5
v 0.5 -0.5 -0.125
v 0.5 -0.4375 -0.125
v 0.5 -0.4375 -0.5
v -0.5 -0.5 -0.5
v -0.5 -0.5 -0.125
v -0.5 -0.4375 -0.125
v -0.5 -0.4375 -0.5
v 0.5 -0.4375 -0.5
v 0.5 -0.4375 -0.125
v 0.5 0.4375 -0.125
v 0.5 0.4375 -0.5
v 0.4375 -0.4375 -0.5
v 0.4375 -0.4375 -0.125
v 0.4375 0.4375 -0.125
v 0.4375 0.4375 -0.5
v -0.4375 -0.4375 -0.5
v -0.4375 -0.4375 -0.125
v -0.4375 0.4375 -0.125
v -0.4375 0.4375 -0.5
v -0.5 -0.4375 -0.5
v -0.5 -0.4375 -0.125
v -0.5 0.4375 -0.125
v -0.5 0.4375 -0.5
vt 0 0.875
vt 0.375 0.875
vt 0.375 0.9375
vt 0 0.9375
vt 0.125 0.875
vt 0.125 0.9375
vt 0.375 0.9375
vt 0.375 0.875
vt 0.875 0.875
vt 0.875 0.9375
vt 0.625 0.9375
vt 0.625 0.875
vt 0.75 0.625
vt 0.75 1
vt 0.5 1
vt 0.5 0.625
vt 0.625 0.9375
vt 0.625 0.875
vt 1 0.875
vt 1 0.9375
vt 0.625 0.9375
vt 0.875 0.9375
vt 0.875 0.875
vt 0.625 0.875
vt 0.375 0.9375
vt 0.125 0.9375
vt 0.125 0.875
vt 0.375 0.875
vt 0.5 1
vt 0.25 1
vt 0.25 0.625
vt 0.5 0.625
vt 0 0.0625
vt 0.375 0.0625
vt 0.375 0.125
vt 0 0.125
vt 0.125 0.0625
vt 0.125 0.125
vt 0.375 0.125
vt 0.375 0.0625
vt 0.875 0.0625
vt 0.875 0.125
vt 0.625 0.125
vt 0.625 0.0625
vt 1 0
vt 1 0.375
vt 0.75 0.375
vt 0.75 0
vt 0.625 0.125
vt 0.625 0.0625
vt 1 0.0625
vt 1 0.125
vt 0.625 0.125
vt 0.875 0.125
vt 0.875 0.0625
vt 0.625 0.0625
vt 0.375 0.125
vt 0.125 0.125
vt 0.125 0.0625
vt 0.375 0.0625
vt 0.25 0.375
vt 0 0.375
vt 0 0
vt 0.25 0
vt 0 0.0625
vt 0.375 0.0625
vt 0.375 0.375
vt 0 0.375
vt 0.0625 0.0625
vt 0.0625 0.375
vt 0.125 0.375
vt 0.125 0.0625
vt 0.9375 0.0625
vt 0.9375 0.375
vt 0.875 0.375
vt 0.875 0.0625
vt 0.875 0
vt 0.875 0.375
vt 0.8125 0.375
vt 0.8125 0
vt 0.625 0.0625
vt 1 0.0625
vt 1 0.375
vt 0.625 0.375
vt 0.875 0.0625
vt 0.875 0.375
vt 0.9375 0.375
vt 0.9375 0.0625
vt 0.125 0.0625
vt 0.125 0.375
vt 0.0625 0.375
vt 0.0625 0.0625
vt 0.1875 0
vt 0.1875 0.375
vt 0.125 0.375
vt 0.125 0
vt 0.625 0.625
vt 1 0.625
vt 1 0.9375
vt 0.625 0.9375
vt 0.875 0.625
vt 0.875 0.9375
vt 0.9375 0.9375
vt 0.9375 0.625
vt 0.125 0.625
vt 0.125 0.9375
vt 0.0625 0.9375
vt 0.0625 0.625
vt 0.0625 0.625
vt 0.0625 1
vt 0 1
vt 0 0.625
vt 0 0.625
vt 0.375 0.625
vt 0.375 0.9375
vt 0 0.9375
vt 0.0625 0.625
vt 0.0625 0.9375
vt 0.125 0.9375
vt 0.125 0.625
vt 0.9375 0.625
vt 0.9375 0.9375
vt 0.875 0.9375
vt 0.875 0.625
vt 1 0.625
vt 1 1
vt 0.9375 1
vt 0.9375 0.625
vt 0 0.8125
vt 0.375 0.8125
vt 0.375 0.875
vt 0 0.875
vt 0.125 0.8125
vt 0.125 0.875
vt 0.25 0.875
vt 0.25 0.8125
vt 0.875 0.8125
vt 0.875 0.875
vt 0.75 0.875
vt 0.75 0.8125
vt 1 0.625
vt 1 1
vt 0.875 1
vt 0.875 0.625
vt 0.625 0.875
vt 0.625 0.8125
vt 1 0.8125
vt 1 0.875
vt 0.75 0.875
vt 0.875 0.875
vt 0.875 0.8125
vt 0.75 0.8125
vt 0.25 0.875
vt 0.125 0.875
vt 0.125 0.8125
vt 0.25 0.8125
vt 0.125 1
vt 0 1
vt 0 0.625
vt 0.125 0.625
vt 0.625 0.8125
vt 0.625 0.75
vt 1 0.75
vt 1 0.8125
vt 0.8125 0.8125
vt 0.875 0.8125
vt 0.875 0.75
vt 0.8125 0.75
vt 0.1875 0.8125
vt 0.125 0.8125
vt 0.125 0.75
vt 0.1875 0.75
vt 0.0625 1
vt 0 1
vt 0 0.625
vt 0.0625 0.625
vt 0 0.75
vt 0.375 0.75
vt 0.375 0.8125
vt 0 0.8125
vt 0.125 0.75
vt 0.125 0.8125
vt 0.1875 0.8125
vt 0.1875 0.75
vt 0.875 0.75
vt 0.875 0.8125
vt 0.8125 0.8125
vt 0.8125 0.75
vt 1 0.625
vt 1 1
vt 0.9375 1
vt 0.9375 0.625
vt 0.625 0.25
vt 0.625 0.1875
vt 1 0.1875
vt 1 0.25
vt 0.8125 0.25
vt 0.875 0.25
vt 0.875 0.1875
vt 0.8125 0.1875
vt 0.1875 0.25
vt 0.125 0.25
vt 0.125 0.1875
vt 0.1875 0.1875
vt 0.125 0.375
vt 0.0625 0.375
vt 0.0625 0
vt 0.125 0
vt 0.625 0.1875
vt 0.625 0.125
vt 1 0.125
vt 1 0.1875
vt 0.75 0.1875
vt 0.875 0.1875
vt 0.875 0.125
vt 0.75 0.125
vt 0.25 0.1875
vt 0.125 0.1875
vt 0.125 0.125
vt 0.25 0.125
vt 0.125 0.375
vt 0 0.375
vt 0 0
vt 0.125 0
vt 0 0.1875
vt 0.375 0.1875
vt 0.375 0.25
vt 0 0.25
vt 0.125 0.1875
vt 0.125 0.25
vt 0.1875 0.25
vt 0.1875 0.1875
vt 0.875 0.1875
vt 0.875 0.25
vt 0.8125 0.25
vt 0.8125 0.1875
vt 0.9375 0
vt 0.9375 0.375
vt 0.875 0.375
vt 0.875 0
vt 0 0.125
vt 0.375 0.125
vt 0.375 0.1875
vt 0 0.1875
vt 0.125 0.125
vt 0.125 0.1875
vt 0.25 0.1875
vt 0.25 0.125
vt 0.875 0.125
vt 0.875 0.1875
vt 0.75 0.1875
vt 0.75 0.125
vt 1 0
vt 1 0.375
vt 0.875 0.375
vt 0.875 0
vt 0.375 0.9375
vt 0 0.9375
vt 0 1
vt 0.375 1
vt 1 0.9375
vt 0.625 0.9375
vt 0.625 1
vt 1 1
vt 0 0.9375
vt 0 1
vt 1 1
vt 1 0.9375
vt 1 0.9375
vt 1 1
vt 0 1
vt 0 0.9375
vt 1 0.625
vt 1 1
vt 0 1
vt 0 0.625
vt 0 0
vt 0 0.375
vt 1 0.375
vt 1 0
vt 0.375 0
vt 0 0
vt 0 0.0625
vt 0.375 0.0625
vt 0.625 0
vt 1 0
vt 1 0.0625
vt 0.625 0.0625
vt 0 0
vt 0 0.0625
vt 1 0.0625
vt 1 0
vt 1 0
vt 1 0.0625
vt 0 0.0625
vt 0 0
vt 0 1
vt 0 0.625
vt 1 0.625
vt 1 1
vt 1 0
vt 1 0.375
vt 0 0.375
vt 0 0
vt 0.375 0.0625
vt 0 0.0625
vt 0 0.9375
vt 0.375 0.9375
vt 0 0.0625
vt 0.375 0.0625
vt 0.375 0.9375
vt 0 0.9375
vt 0 0.0625
vt 0 0.9375
vt 0.0625 0.9375
vt 0.0625 0.0625
vt 1 0.0625
vt 1 0.9375
vt 0.9375 0.9375
vt 0.9375 0.0625
vt 0 1
vt 0 1
vt 0 1
vt 0 1
vt 0 1
vt 0 1
vt 0 1
vt 0 1
vt 0.625 0.0625
vt 1 0.0625
vt 1 0.9375
vt 0.625 0.9375
vt 0.625 0.0625
vt 1 0.0625
vt 1 0.9375
vt 0.625 0.9375
vt 0.9375 0.0625
vt 0.9375 0.9375
vt 1 0.9375
vt 1 0.0625
vt 0.0625 0.0625
vt 0.0625 0.9375
vt 0 0.9375
vt 0 0.0625
vt 0 1
vt 0 1
vt 0 1
vt 0 1
vt 0 1
vt 0 1
vt 0 1
vt 0 1
vn -1 0 0
vn 0 0 1
vn 0 0 1
vn 0 -1 0
vn 1 0 0
vn 0 0 1
vn 0 0 1
vn 0 -1 0
vn -1 0 0
vn 0 0 1
vn 0 0 1
vn 0 -1 0
vn 1 0 0
vn 0 0 1
vn 0 0 1
vn 0 -1 0
vn -1 0 0
vn 0 0 1
vn 0 0 1
vn 0 -1 0
vn -1 0 0
vn 0 0 1
vn 0 0 1
vn 0 -1 0
vn -1 0 0
vn 0 0 1
vn 0 0 1
vn 0 -1 0
vn -1 0 0
vn 0 0 1
vn 0 0 1
vn 0 -1 0
vn -1 0 0
vn 0 0 1
vn 0 0 1
vn 0 -1 0
vn 1 0 0
vn 0 0 1
vn 0 0 1
vn 0 -1 0
vn 1 0 0
vn 0 0 1
vn 0 0 1
vn 0 -1 0
vn -1 0 0
vn 0 0 1
vn 0 0 1
vn 0 -1 0
vn 1 0 0
vn 0 0 1
vn 0 0 1
vn 0 -1 0
vn 1 0 0
vn 0 0 1
vn 0 0 1
vn 0 -1 0
vn -1 0 0
vn 0 0 1
vn 0 0 1
vn 0 -1 0
vn -1 0 0
vn 0 0 1
vn 0 0 1
vn 0 -1 0
vn -1 0 0
vn -1 0 0
vn 0 0 1
vn 0 0 1
vn 0 -1 0
vn 0 -1 0
vn -1 0 0
vn -1 0 0
vn 0 0 1
vn 0 0 1
vn 0 -1 0
vn 0 -1 0
vn -1 0 0
vn -1 0 0
vn 0 0 1
vn 0 0 1
vn 0 -1 0
vn 0 -1 0
vn -1 0 0
vn -1 0 0
vn 0 0 1
vn 0 0 1
vn 0 -1 0
vn 0 -1 0
usemtl m_5d5b355d-dd49-ed67-6247-9190b5d59391
f 157/305/77 158/306/77 159/307/77 160/308/77
f 153/309/78 156/310/78 160/311/78 157/312/78
f 154/313/79 155/314/79 159/315/79 158/316/79
f 153/317/80 154/318/80 158/319/80 157/320/80
f 167/321/81 166/322/81 165/323/81 168/324/81
f 168/325/82 164/326/82 161/327/82 165/328/82
f 167/329/83 163/330/83 162/331/83 166/332/83
f 166/333/84 162/334/84 161/335/84 165/336/84
f 173/337/85 174/338/85 175/339/85 176/340/85
f 169/341/86 172/342/86 176/343/86 173/344/86
f 170/345/87 171/346/87 175/347/87 174/348/87
f 172/349/88 171/350/88 175/351/88 176/352/88
f 183/353/89 182/354/89 181/355/89 184/356/89
f 184/357/90 180/358/90 177/359/90 181/360/90
f 183/361/91 179/362/91 178/363/91 182/364/91
f 183/365/92 179/366/92 180/367/92 184/368/92
f 189/369/93 190/370/93 191/371/93 192/372/93
f 185/373/94 188/374/94 192/375/94 189/376/94
f 186/377/95 187/378/95 191/379/95 190/380/95
f 188/381/96 187/382/96 191/383/96 192/384/96
f 193/385/97 194/386/97 195/387/97 196/388/97
f 193/389/98 196/390/98 200/391/98 197/392/98
f 194/393/99 195/394/99 199/395/99 198/396/99
f 196/397/100 195/398/100 199/399/100 200/400/100
f 201/401/101 202/402/101 203/403/101 204/404/101
f 201/405/102 204/406/102 208/407/102 205/408/102
f 202/409/103 203/410/103 207/411/103 206/412/103
f 201/413/104 202/414/104 206/415/104 205/416/104
f 213/417/105 214/418/105 215/419/105 216/420/105
f 209/421/106 212/422/106 216/423/106 213/424/106
f 210/425/107 211/426/107 215/427/107 214/428/107
f 209/429/108 210/430/108 214/431/108 213/432/108
f 221/433/109 222/434/109 223/435/109 224/436/109
f 217/437/110 220/438/110 224/439/110 221/440/110
f 218/441/111 219/442/111 223/443/111 222/444/111
f 217/445/112 218/446/112 222/447/112 221/448/112
f 231/449/113 230/450/113 229/451/113 232/452/113
f 232/453/114 228/454/114 225/455/114 229/456/114
f 231/457/115 227/458/115 226/459/115 230/460/115
f 230/461/116 226/462/116 225/463/116 229/464/116
f 239/465/117 238/466/117 237/467/117 240/468/117
f 240/469/118 236/470/118 233/471/118 237/472/118
f 239/473/119 235/474/119 234/475/119 238/476/119
f 238/477/120 234/478/120 233/479/120 237/480/120
f 245/481/121 246/482/121 247/483/121 248/484/121
f 241/485/122 244/486/122 248/487/122 245/488/122
f 242/489/123 243/490/123 247/491/123 246/492/123
f 241/493/124 242/494/124 246/495/124 245/496/124
f 255/497/125 254/498/125 253/499/125 256/500/125
f 256/501/126 252/502/126 249/503/126 253/504/126
f 255/505/127 251/506/127 250/507/127 254/508/127
f 255/509/128 251/510/128 252/511/128 256/512/128
f 263/513/129 262/514/129 261/515/129 264/516/129
f 264/517/130 260/518/130 257/519/130 261/520/130
f 263/521/131 259/522/131 258/523/131 262/524/131
f 263/525/132 259/526/132 260/527/132 264/528/132
f 269/529/133 270/530/133 271/531/133 272/532/133
f 265/533/134 268/534/134 272/535/134 269/536/134
f 266/537/135 267/538/135 271/539/135 270/540/135
f 268/541/136 267/542/136 271/543/136 272/544/136
f 277/545/137 278/546/137 279/547/137 280/548/137
f 273/549/138 276/550/138 280/551/138 277/552/138
f 274/553/139 275/554/139 279/555/139 278/556/139
f 276/557/140 275/558/140 279/559/140 280/560/140
f 281/561/141 282/562/141 283/563/141 284/564/141
f 285/565/142 286/566/142 287/567/142 288/568/142
f 281/569/143 284/570/143 288/571/143 285/572/143
f 282/573/144 283/574/144 287/575/144 286/576/144
f 281/577/145 282/578/145 286/579/145 285/580/145
f 284/581/146 283/582/146 287/583/146 288/584/146
f 289/585/147 290/586/147 291/587/147 292/588/147
f 293/589/148 294/590/148 295/591/148 296/592/148
f 289/593/149 292/594/149 296/595/149 293/596/149
f 290/597/150 291/598/150 295/599/150 294/600/150
f 289/601/151 290/602/151 294/603/151 293/604/151
f 292/605/152 291/606/152 295/607/152 296/608/152
f 297/609/153 298/610/153 299/611/153 300/612/153
f 301/613/154 302/614/154 303/615/154 304/616/154
f 297/617/155 300/618/155 304/619/155 301/620/155
f 298/621/156 299/622/156 303/623/156 302/624/156
f 297/625/157 298/626/157 302/627/157 301/628/157
f 300/629/158 299/630/158 303/631/158 304/632/158
f 305/633/159 306/634/159 307/635/159 308/636/159
f 309/637/160 310/638/160 311/639/160 312/640/160
f 305/641/161 308/642/161 312/643/161 309/644/161
f 306/645/162 307/646/162 311/647/162 310/648/162
f 305/649/163 306/650/163 310/651/163 309/652/163
f 308/653/164 307/654/164 311/655/164 312/656/164
