# Made in Blockbench 5.1.6
mtllib hobbit_door_half_open.mtl

g hobbit
v 0.4215658418926377 1.437500868470576 -0.26682729604725863
v 0.32581028650276544 1.4375009526112772 -0.347175747258032
v 0.4215658418926377 -0.43749913152839603 -0.2668292595426671
v 0.32581028650276544 -0.43749904738769463 -0.3471777107534405
v 0.10017203704936806 1.4375004673706433 0.11619492551202026
v 0.004416481659495819 1.4375005515113446 0.03584647430124688
v 0.10017203704936806 -0.43749953262832847 0.11619296201661178
v 0.004416481659495819 -0.4374994484876271 0.03584451080583839
v 0.5420885187088639 1.375001018883085 -0.4104606945818353
v 0.44633296331899164 1.3750011030237863 -0.4908091457926087
v 0.5420885187088639 -0.3749989811159556 -0.41046252717754983
v 0.44633296331899164 -0.37499889697525424 -0.4908109783883232
v 0.4215658418926377 1.3750008684706103 -0.2668273614971056
v 0.32581028650276544 1.3750009526113116 -0.347175812707879
v 0.4215658418926377 -0.3749991315284303 -0.26682919409282024
v 0.32581028650276544 -0.37499904738772893 -0.34717764530359363
v 0.5822627443142727 1.3125010690206107 -0.45833853772659205
v 0.48650718892440037 1.312501153161312 -0.5386869889373653
v 0.5822627443142727 -0.3124989309784983 -0.4583402394226128
v 0.48650718892440037 -0.31249884683779694 -0.5386886906333861
v 0.5420885187088639 1.3125010188831192 -0.4104607600316822
v 0.44633296331899164 1.3125011030238205 -0.4908092112424556
v 0.5420885187088639 -0.31249898111598984 -0.41046246172770295
v 0.44633296331899164 -0.31249889697528854 -0.49081091293847634
v 0.6626111955250902 1.250001169295628 -0.5540941585662589
v 0.5668556401352178 1.2500012534363294 -0.6344426097770322
v 0.6626111955250902 -0.24999883070354945 -0.5540957293625857
v 0.5668556401352178 -0.2499987465628481 -0.6344441805733589
v 0.5822627443142727 1.250001069020645 -0.45833860317643915
v 0.48650718892440037 1.2500011531613462 -0.5386870543872124
v 0.5822627443142727 -0.2499989309785326 -0.45834017397276594
v 0.48650718892440037 -0.24999884683783125 -0.5386886251835392
v 0.7027854211304989 1.187501219433154 -0.6019720017110157
v 0.6070298657406266 1.1875013035738553 -0.682320452921789
v 0.7027854211304989 -0.1874987805660922 -0.6019734416076485
v 0.6070298657406266 -0.18749869642539085 -0.6823218928184218
v 0.6626111955250902 1.1875011692956625 -0.5540942240161058
v 0.5668556401352178 1.1875012534363638 -0.634442675226879
v 0.6626111955250902 -0.18749883070358375 -0.5540956639127386
v 0.5668556401352178 -0.1874987465628824 -0.6344441151235118
v 0.7429596467359074 1.1250012695706797 -0.6498498448557724
v 0.6472040913460351 1.125001353711381 -0.7301982960665456
v 0.7429596467359074 -0.12499873042863485 -0.6498511538527114
v 0.6472040913460351 -0.1249986462879335 -0.7301996050634847
v 0.7027854211304989 1.1250012194331882 -0.6019720671608626
v 0.6070298657406266 1.1250013035738895 -0.6823205183716359
v 0.7027854211304989 -0.12499878056612646 -0.6019733761578017
v 0.6070298657406266 -0.1249986964254251 -0.6823218273685749
v 0.7831338723413162 1.0000013197082398 -0.6977277534503763
v 0.6873783169514438 1.000001403848941 -0.7780762046611496
v 0.7831338723413162 0.000001319708788138918 -0.6977288006479274
v 0.6873783169514438 0.0000014038494894341724 -0.7780772518587007
v 0.7429596467359074 1.0000012695707483 -0.6498499757554663
v 0.6472040913460351 1.0000013537114496 -0.7301984269662396
v 0.7429596467359074 0.0000012695712966470651 -0.6498510229530174
v 0.6472040913460351 0.0000013537119979423196 -0.7301994741637907
v 0.8233080979467249 0.9375013698457657 -0.7456055965951329
v 0.7275525425568525 0.937501453986467 -0.8259540478059062
v 0.8233080979467249 0.06250136984624555 -0.7456065128929903
v 0.7275525425568525 0.06250145398694684 -0.8259549641037636
v 0.7831338723413162 0.937501319708274 -0.6977278189002232
v 0.6873783169514438 0.9375014038489753 -0.7780762701109964
v 0.7831338723413162 0.06250131970875394 -0.6977287351980805
v 0.6873783169514438 0.06250140384945524 -0.7780771864088538
v 0.8634823235521336 0.75000141998336 -0.7934835706395837
v 0.7677267681622613 0.7500015041240613 -0.873832021850357
v 0.8634823235521336 0.25000141998363423 -0.7934840942383594
v 0.7677267681622613 0.2500015041243355 -0.8738325454491327
v 0.8233080979467249 0.7500013698458685 -0.7456057929446738
v 0.7275525425568525 0.7500014539865698 -0.825954244155447
v 0.8233080979467249 0.25000136984614274 -0.7456063165434494
v 0.7275525425568525 0.25000145398684404 -0.8259547677542227
v 0.8233080979467249 0.7500013698458685 -0.7456057929446738
v 0.7275525425568525 0.7500014539865698 -0.825954244155447
v 0.8233080979467249 0.9375013698457657 -0.7456055965951329
v 0.7275525425568525 0.937501453986467 -0.8259540478059062
v 0.7429596467359074 1.0000012695707483 -0.6498499757554663
v 0.6472040913460351 1.0000013537114496 -0.7301984269662396
v 0.7429596467359074 1.1250012695706797 -0.6498498448557724
v 0.6472040913460351 1.125001353711381 -0.7301982960665456
v 0.7429596467359074 -0.12499873042863485 -0.6498511538527114
v 0.6472040913460351 -0.1249986462879335 -0.7301996050634847
v 0.7429596467359074 0.0000012695712966470651 -0.6498510229530174
v 0.6472040913460351 0.0000013537119979423196 -0.7301994741637907
v 0.7831338723413162 0.937501319708274 -0.6977278189002232
v 0.6873783169514438 0.9375014038489753 -0.7780762701109964
v 0.7831338723413162 1.0000013197082398 -0.6977277534503763
v 0.6873783169514438 1.000001403848941 -0.7780762046611496
v 0.7027854211304989 1.1250012194331882 -0.6019720671608626
v 0.6070298657406266 1.1250013035738895 -0.6823205183716359
v 0.7027854211304989 1.187501219433154 -0.6019720017110157
v 0.6070298657406266 1.1875013035738553 -0.682320452921789
v 0.6626111955250902 1.1875011692956625 -0.5540942240161058
v 0.5668556401352178 1.1875012534363638 -0.634442675226879
v 0.6626111955250902 1.250001169295628 -0.5540941585662589
v 0.5668556401352178 1.2500012534363294 -0.6344426097770322
v 0.5822627443142727 1.250001069020645 -0.45833860317643915
v 0.48650718892440037 1.2500011531613462 -0.5386870543872124
v 0.5822627443142727 1.3125010690206107 -0.45833853772659205
v 0.48650718892440037 1.312501153161312 -0.5386869889373653
v 0.5420885187088639 1.3125010188831192 -0.4104607600316822
v 0.44633296331899164 1.3125011030238205 -0.4908092112424556
v 0.5420885187088639 1.375001018883085 -0.4104606945818353
v 0.44633296331899164 1.3750011030237863 -0.4908091457926087
v 0.4215658418926377 1.3750008684706103 -0.2668273614971056
v 0.32581028650276544 1.3750009526113116 -0.347175812707879
v 0.4215658418926377 1.437500868470576 -0.26682729604725863
v 0.32581028650276544 1.4375009526112772 -0.347175747258032
v 0.4215658418926377 -0.43749913152839603 -0.2668292595426671
v 0.32581028650276544 -0.43749904738769463 -0.3471777107534405
v 0.4215658418926377 -0.3749991315284303 -0.26682919409282024
v 0.32581028650276544 -0.37499904738772893 -0.34717764530359363
v 0.5420885187088639 -0.3749989811159556 -0.41046252717754983
v 0.44633296331899164 -0.37499889697525424 -0.4908109783883232
v 0.5420885187088639 -0.31249898111598984 -0.41046246172770295
v 0.44633296331899164 -0.31249889697528854 -0.49081091293847634
v 0.5822627443142727 -0.3124989309784983 -0.4583402394226128
v 0.48650718892440037 -0.31249884683779694 -0.5386886906333861
v 0.5822627443142727 -0.2499989309785326 -0.45834017397276594
v 0.48650718892440037 -0.24999884683783125 -0.5386886251835392
v 0.6626111955250902 -0.24999883070354945 -0.5540957293625857
v 0.5668556401352178 -0.2499987465628481 -0.6344441805733589
v 0.6626111955250902 -0.18749883070358375 -0.5540956639127386
v 0.5668556401352178 -0.1874987465628824 -0.6344441151235118
v 0.7027854211304989 -0.1874987805660922 -0.6019734416076485
v 0.6070298657406266 -0.18749869642539085 -0.6823218928184218
v 0.7027854211304989 -0.12499878056612646 -0.6019733761578017
v 0.6070298657406266 -0.1249986964254251 -0.6823218273685749
v 0.7831338723413162 0.000001319708788138918 -0.6977288006479274
v 0.6873783169514438 0.0000014038494894341724 -0.7780772518587007
v 0.7831338723413162 0.06250131970875394 -0.6977287351980805
v 0.6873783169514438 0.06250140384945524 -0.7780771864088538
v 0.8233080979467249 0.06250136984624555 -0.7456065128929903
v 0.7275525425568525 0.06250145398694684 -0.8259549641037636
v 0.8233080979467249 0.25000136984614274 -0.7456063165434494
v 0.7275525425568525 0.25000145398684404 -0.8259547677542227
v -0.1161033224900686 1.37500040109638 0.17948215238966586
v -0.020347767100196368 1.3750003169556788 0.2598306036004392
v -0.11610619515673032 -0.37499959890013607 0.17947790934041497
v -0.02035063976685808 -0.3749996830408374 0.25982636055118835
v 0.004419354326157532 1.3750005515088548 0.03584881930493622
v 0.10017490971602983 1.3750004673681535 0.1161972705157096
v 0.004416481659495819 -0.3749994484876614 0.03584457625568527
v 0.10017203704936806 -0.3749995326283627 0.11619302746645865
v -0.15627754809547734 1.3125003509589228 0.2273598646347288
v -0.0605219927056051 1.3125002668182215 0.3077083158455022
v -0.15627994198436213 -0.3124996490380826 0.22735615422742783
v -0.06052438659448983 -0.31249973317878393 0.30770460543820116
v -0.1161033224900686 1.3125004010964143 0.17948208693981893
v -0.020347767100196368 1.312500316955713 0.2598305381505923
v -0.1161057163789534 -0.31249959890059104 0.17947837653251797
v -0.0203501609890811 -0.3124996830412924 0.2598268277432913
v -0.23662599930629477 1.250000250683974 0.3231153545747016
v -0.1408704439164225 1.2500001665432727 0.4034638057854749
v -0.2366283931951795 -0.24999974931309998 0.32311177506709454
v -0.14087283780530724 -0.24999983345380133 0.4034602262778679
v -0.15627754809547734 1.250000350958957 0.2273597991848818
v -0.0605219927056051 1.2500002668182557 0.3077082503956552
v -0.15627994198436213 -0.2499996490381169 0.22735621967727476
v -0.06052438659448983 -0.24999973317881824 0.3077046708880481
v -0.2768007036894804 1.1875002005469375 0.37099266507750844
v -0.18104514829960816 1.187500116406236 0.4513411162882818
v -0.2768026188005882 -0.18749979945062584 0.3709896182118513
v -0.18104706341071597 -0.1874998835913272 0.45133806942262467
v -0.23662647808407172 1.1875002506844292 0.3231148873825986
v -0.14087092269419943 1.1875001665437277 0.4034633385933719
v -0.2366283931951795 -0.1874997493131343 0.3231118405169414
v -0.14087283780530724 -0.18749983345383564 0.4034602917277148
v -0.31697492929488913 1.1250001504094802 0.4188703773225714
v -0.22121937390501686 1.1250000662687787 0.4992188285333447
v -0.31697684440599694 -0.12499984958815163 0.41886746135660813
v -0.22122128901612464 -0.12499993372885299 0.4992159125673815
v -0.2768007036894804 1.1250002005469717 0.3709925996276615
v -0.18104514829960816 1.1250001164062702 0.45134105083843484
v -0.2768026188005882 -0.12499979945066009 0.37098968366169827
v -0.18104706341071597 -0.12499988359136144 0.45133813487247165
v -0.35714915490029786 1.0000001002720573 0.4667480241177873
v -0.26139359951042557 1.0000000161313558 0.5470964753285606
v -0.3571505912336287 1.002738675426329e-7 0.466745771693468
v -0.26139503584375645 1.6133166247378483e-8 0.5470942229042414
v -0.31697492929488913 1.0000001504095488 0.41887024642287746
v -0.22121937390501686 1.0000000662688473 0.4992186976336508
v -0.31697636562821996 1.5041135903448577e-7 0.4188679939985581
v -0.22122081023834772 6.627065773923135e-8 0.49921644520933145
v -0.39732338050570654 0.9375000501345998 0.5146257363628503
v -0.3015678251158343 0.9374999659938983 0.5949741875736236
v -0.3973248168390374 0.06250005013634174 0.5146236148382248
v -0.3015692614491651 0.06249996599564045 0.5949720660489981
v -0.35714915490029786 0.9375001002720915 0.4667479586679404
v -0.26139359951042557 0.93750001613139 0.5470964098787138
v -0.3571505912336287 0.06250010027383324 0.4667458371433149
v -0.26139503584375645 0.06250001613313194 0.5470942883540882
v -0.4374980848888922 0.7499999999976317 0.5625029159659632
v -0.34174252949901995 0.7499999158569304 0.6428513671767365
v -0.4374990424444461 0.24999999999874734 0.5625015888826755
v -0.34174348705457386 0.24999991585804604 0.6428500400934489
v -0.3973238592834835 0.7500000501351232 0.5146251382710534
v -0.3015683038936112 0.7499999659944219 0.5949735894818267
v -0.3973248168390374 0.25000005013623894 0.5146238111877657
v -0.3015692614491651 0.24999996599553764 0.594972262398539
v -0.3973238592834835 0.7500000501351232 0.5146251382710534
v -0.3015683038936112 0.7499999659944219 0.5949735894818267
v -0.39732338050570654 0.9375000501345998 0.5146257363628503
v -0.3015678251158343 0.9374999659938983 0.5949741875736236
v -0.31697492929488913 1.0000001504095488 0.41887024642287746
v -0.22121937390501686 1.0000000662688473 0.4992186976336508
v -0.31697492929488913 1.1250001504094802 0.4188703773225714
v -0.22121937390501686 1.1250000662687787 0.4992188285333447
v -0.31697684440599694 -0.12499984958815163 0.41886746135660813
v -0.22122128901612464 -0.12499993372885299 0.4992159125673815
v -0.31697636562821996 1.5041135903448577e-7 0.4188679939985581
v -0.22122081023834772 6.627065773923135e-8 0.49921644520933145
v -0.35714915490029786 0.9375001002720915 0.4667479586679404
v -0.26139359951042557 0.93750001613139 0.5470964098787138
v -0.35714915490029786 1.0000001002720573 0.4667480241177873
v -0.26139359951042557 1.0000000161313558 0.5470964753285606
v -0.2768007036894804 1.1250002005469717 0.3709925996276615
v -0.18104514829960816 1.1250001164062702 0.45134105083843484
v -0.2768007036894804 1.1875002005469375 0.37099266507750844
v -0.18104514829960816 1.187500116406236 0.4513411162882818
v -0.23662647808407172 1.1875002506844292 0.3231148873825986
v -0.14087092269419943 1.1875001665437277 0.4034633385933719
v -0.23662599930629477 1.250000250683974 0.3231153545747016
v -0.1408704439164225 1.2500001665432727 0.4034638057854749
v -0.15627754809547734 1.250000350958957 0.2273597991848818
v -0.0605219927056051 1.2500002668182557 0.3077082503956552
v -0.15627754809547734 1.3125003509589228 0.2273598646347288
v -0.0605219927056051 1.3125002668182215 0.3077083158455022
v -0.1161033224900686 1.3125004010964143 0.17948208693981893
v -0.020347767100196368 1.312500316955713 0.2598305381505923
v -0.1161033224900686 1.37500040109638 0.17948215238966586
v -0.020347767100196368 1.3750003169556788 0.2598306036004392
v 0.004419354326157532 1.3750005515088548 0.03584881930493622
v 0.10017490971602983 1.3750004673681535 0.1161972705157096
v 0.004419354326157532 1.4375005515088204 0.035848884754783206
v 0.10017490971602983 1.437500467368119 0.11619733596555659
v 0.004416481659495819 -0.4374994484876271 0.03584451080583839
v 0.10017203704936806 -0.43749953262832847 0.11619296201661178
v 0.004416481659495819 -0.3749994484876614 0.03584457625568527
v 0.10017203704936806 -0.3749995326283627 0.11619302746645865
v -0.11610619515673032 -0.37499959890013607 0.17947790934041497
v -0.02035063976685808 -0.3749996830408374 0.25982636055118835
v -0.1161057163789534 -0.31249959890059104 0.17947837653251797
v -0.0203501609890811 -0.3124996830412924 0.2598268277432913
v -0.15627994198436213 -0.3124996490380826 0.22735615422742783
v -0.06052438659448983 -0.31249973317878393 0.30770460543820116
v -0.15627994198436213 -0.2499996490381169 0.22735621967727476
v -0.06052438659448983 -0.24999973317881824 0.3077046708880481
v -0.2366283931951795 -0.24999974931309998 0.32311177506709454
v -0.14087283780530724 -0.24999983345380133 0.4034602262778679
v -0.2366283931951795 -0.1874997493131343 0.3231118405169414
v -0.14087283780530724 -0.18749983345383564 0.4034602917277148
v -0.2768026188005882 -0.18749979945062584 0.3709896182118513
v -0.18104706341071597 -0.1874998835913272 0.45133806942262467
v -0.2768026188005882 -0.12499979945066009 0.37098968366169827
v -0.18104706341071597 -0.12499988359136144 0.45133813487247165
v -0.3571505912336287 1.002738675426329e-7 0.466745771693468
v -0.26139503584375645 1.6133166247378483e-8 0.5470942229042414
v -0.3571505912336287 0.06250010027383324 0.4667458371433149
v -0.26139503584375645 0.06250001613313194 0.5470942883540882
v -0.3973248168390374 0.06250005013634174 0.5146236148382248
v -0.3015692614491651 0.06249996599564045 0.5949720660489981
v -0.3973248168390374 0.25000005013623894 0.5146238111877657
v -0.3015692614491651 0.24999996599553764 0.594972262398539
vt 0.9375 0.6666666666666667
vt 0.9375 0.4
vt 1 0.4
vt 1 0.6666666666666667
vt 0.9375 0.33333333333333337
vt 1 0.33333333333333337
vt 1 0.6
vt 0.9375 0.6
vt 0.59375 0
vt 0.59375 1
vt 0.34375 1
vt 0.34375 0
vt 0.59375 1
vt 0.34375 1
vt 0.34375 0
vt 0.59375 0
vt 0.9375 0.9
vt 0.9375 0.8
vt 1 0.8
vt 1 0.9
vt 0.9375 0.16666666666666663
vt 1 0.16666666666666663
vt 1 0.2666666666666667
vt 0.9375 0.2666666666666667
vt 0.6875 0.033333333333333326
vt 0.6875 0.9666666666666667
vt 0.59375 0.9666666666666667
vt 0.59375 0.033333333333333326
vt 0.34375 0.9666666666666667
vt 0.25 0.9666666666666667
vt 0.25 0.033333333333333326
vt 0.34375 0.033333333333333326
vt 0.9375 0.9333333333333333
vt 0.9375 0.9
vt 1 0.9
vt 1 0.9333333333333333
vt 0.9375 0.23333333333333328
vt 1 0.23333333333333328
vt 1 0.2666666666666667
vt 0.9375 0.2666666666666667
vt 0.71875 0.06666666666666665
vt 0.71875 0.9333333333333333
vt 0.6875 0.9333333333333333
vt 0.6875 0.06666666666666665
vt 0.25 0.9333333333333333
vt 0.21875 0.9333333333333333
vt 0.21875 0.06666666666666665
vt 0.25 0.06666666666666665
vt 0.9375 0.8666666666666667
vt 0.9375 0.8
vt 1 0.8
vt 1 0.8666666666666667
vt 0.9375 0.1333333333333333
vt 1 0.1333333333333333
vt 1 0.19999999999999996
vt 0.9375 0.19999999999999996
vt 0.78125 0.09999999999999998
vt 0.78125 0.9
vt 0.71875 0.9
vt 0.71875 0.09999999999999998
vt 0.21875 0.9
vt 0.15625 0.9
vt 0.15625 0.09999999999999998
vt 0.21875 0.09999999999999998
vt 0.9375 0.8
vt 0.9375 0.7666666666666666
vt 1 0.7666666666666666
vt 1 0.8
vt 0.9375 0.23333333333333328
vt 1 0.23333333333333328
vt 1 0.2666666666666667
vt 0.9375 0.2666666666666667
vt 0.8125 0.1333333333333333
vt 0.8125 0.8666666666666667
vt 0.78125 0.8666666666666667
vt 0.78125 0.1333333333333333
vt 0.15625 0.8666666666666667
vt 0.125 0.8666666666666667
vt 0.125 0.1333333333333333
vt 0.15625 0.1333333333333333
vt 0.9375 0.7666666666666666
vt 0.9375 0.7333333333333334
vt 1 0.7333333333333334
vt 1 0.7666666666666666
vt 0.9375 0.16666666666666663
vt 1 0.16666666666666663
vt 1 0.19999999999999996
vt 0.9375 0.19999999999999996
vt 0.84375 0.16666666666666663
vt 0.84375 0.8333333333333334
vt 0.8125 0.8333333333333334
vt 0.8125 0.16666666666666663
vt 0.125 0.8333333333333334
vt 0.09375 0.8333333333333334
vt 0.09375 0.16666666666666663
vt 0.125 0.16666666666666663
vt 0.9375 0.7
vt 0.9375 0.6666666666666667
vt 1 0.6666666666666667
vt 1 0.7
vt 0.9375 0.33333333333333337
vt 1 0.33333333333333337
vt 1 0.3666666666666667
vt 0.9375 0.3666666666666667
vt 0.875 0.23333333333333328
vt 0.875 0.7666666666666666
vt 0.84375 0.7666666666666666
vt 0.84375 0.23333333333333328
vt 0.09375 0.7666666666666666
vt 0.0625 0.7666666666666666
vt 0.0625 0.23333333333333328
vt 0.09375 0.23333333333333328
vt 0.9375 0.6666666666666667
vt 0.9375 0.6333333333333333
vt 1 0.6333333333333333
vt 1 0.6666666666666667
vt 0.9375 0.3666666666666667
vt 1 0.3666666666666667
vt 1 0.4
vt 0.9375 0.4
vt 0.90625 0.2666666666666667
vt 0.90625 0.7333333333333334
vt 0.875 0.7333333333333334
vt 0.875 0.2666666666666667
vt 0.0625 0.7333333333333334
vt 0.03125 0.7333333333333334
vt 0.03125 0.2666666666666667
vt 0.0625 0.2666666666666667
vt 1 0.6333333333333333
vt 0.9375 0.6333333333333333
vt 0.9375 0.3666666666666667
vt 1 0.3666666666666667
vt 0.9375 0.6333333333333333
vt 0.9375 0.6
vt 1 0.6
vt 1 0.6333333333333333
vt 0.9375 0
vt 0.9375 0.06666666666666665
vt 0.90625 0.06666666666666665
vt 0.90625 0
vt 0.9375 0.3666666666666667
vt 0.9375 0.6333333333333333
vt 0.90625 0.6333333333333333
vt 0.90625 0.3666666666666667
vt 0.03125 0.6333333333333333
vt 0 0.6333333333333333
vt 0 0.3666666666666667
vt 0.03125 0.3666666666666667
vt 0.9375 0.6333333333333333
vt 1 0.6333333333333333
vt 1 0.7333333333333334
vt 0.9375 0.7333333333333334
vt 0.9375 0.7666666666666666
vt 1 0.7666666666666666
vt 1 0.8333333333333334
vt 0.9375 0.8333333333333334
vt 0.9375 0.16666666666666663
vt 1 0.16666666666666663
vt 1 0.23333333333333328
vt 0.9375 0.23333333333333328
vt 0.9375 0.7
vt 1 0.7
vt 1 0.7333333333333334
vt 0.9375 0.7333333333333334
vt 0.9375 0.8333333333333334
vt 1 0.8333333333333334
vt 1 0.8666666666666667
vt 0.9375 0.8666666666666667
vt 0.9375 0.8666666666666667
vt 1 0.8666666666666667
vt 1 0.9
vt 0.9375 0.9
vt 0.9375 0.9
vt 1 0.9
vt 1 0.9333333333333333
vt 0.9375 0.9333333333333333
vt 0.9375 0.9333333333333333
vt 1 0.9333333333333333
vt 1 0.9666666666666667
vt 0.9375 0.9666666666666667
vt 0.9375 0.9666666666666667
vt 1 0.9666666666666667
vt 1 1
vt 0.9375 1
vt 0.9375 0
vt 1 0
vt 1 0.033333333333333326
vt 0.9375 0.033333333333333326
vt 0.9375 0.033333333333333326
vt 1 0.033333333333333326
vt 1 0.06666666666666665
vt 0.9375 0.06666666666666665
vt 0.9375 0.06666666666666665
vt 1 0.06666666666666665
vt 1 0.09999999999999998
vt 0.9375 0.09999999999999998
vt 0.9375 0.09999999999999998
vt 1 0.09999999999999998
vt 1 0.1333333333333333
vt 0.9375 0.1333333333333333
vt 0.9375 0.1333333333333333
vt 1 0.1333333333333333
vt 1 0.16666666666666663
vt 0.9375 0.16666666666666663
vt 0.9375 0.23333333333333328
vt 1 0.23333333333333328
vt 1 0.2666666666666667
vt 0.9375 0.2666666666666667
vt 0.9375 0.2666666666666667
vt 1 0.2666666666666667
vt 1 0.3666666666666667
vt 0.9375 0.3666666666666667
vt 1 0.9
vt 1 1
vt 0.9375 1
vt 0.9375 0.9
vt 0.25 0
vt 0.25 0.06666666666666665
vt 0.34375 0.06666666666666665
vt 0.34375 0
vt 0.6875 0.033333333333333326
vt 0.6875 0.9666666666666667
vt 0.59375 0.9666666666666667
vt 0.59375 0.033333333333333326
vt 0.34375 0.9666666666666667
vt 0.25 0.9666666666666667
vt 0.25 0.033333333333333326
vt 0.34375 0.033333333333333326
vt 1 0.8
vt 1 0.8333333333333334
vt 0.9375 0.8333333333333334
vt 0.9375 0.8
vt 0.25 0
vt 0.25 0.06666666666666665
vt 0.21875 0.06666666666666665
vt 0.21875 0
vt 0.71875 0.06666666666666665
vt 0.71875 0.9333333333333333
vt 0.6875 0.9333333333333333
vt 0.6875 0.06666666666666665
vt 0.25 0.9333333333333333
vt 0.21875 0.9333333333333333
vt 0.21875 0.06666666666666665
vt 0.25 0.06666666666666665
vt 1 0.7333333333333334
vt 1 0.8
vt 0.9375 0.8
vt 0.9375 0.7333333333333334
vt 0.15625 0
vt 0.15625 0.06666666666666665
vt 0.21875 0.06666666666666665
vt 0.21875 0
vt 0.78125 0.09999999999999998
vt 0.78125 0.9
vt 0.71875 0.9
vt 0.71875 0.09999999999999998
vt 0.21875 0.9
vt 0.15625 0.9
vt 0.15625 0.09999999999999998
vt 0.21875 0.09999999999999998
vt 1 0.6333333333333333
vt 1 0.6666666666666667
vt 0.9375 0.6666666666666667
vt 0.9375 0.6333333333333333
vt 0.15625 0
vt 0.15625 0.06666666666666665
vt 0.125 0.06666666666666665
vt 0.125 0
vt 0.8125 0.1333333333333333
vt 0.8125 0.8666666666666667
vt 0.78125 0.8666666666666667
vt 0.78125 0.1333333333333333
vt 0.15625 0.8666666666666667
vt 0.125 0.8666666666666667
vt 0.125 0.1333333333333333
vt 0.15625 0.1333333333333333
vt 1 0.8
vt 1 0.8333333333333334
vt 0.9375 0.8333333333333334
vt 0.9375 0.8
vt 0.125 0
vt 0.125 0.06666666666666665
vt 0.09375 0.06666666666666665
vt 0.09375 0
vt 0.84375 0.16666666666666663
vt 0.84375 0.8333333333333334
vt 0.8125 0.8333333333333334
vt 0.8125 0.16666666666666663
vt 0.125 0.8333333333333334
vt 0.09375 0.8333333333333334
vt 0.09375 0.16666666666666663
vt 0.125 0.16666666666666663
vt 1 0.6333333333333333
vt 1 0.6666666666666667
vt 0.9375 0.6666666666666667
vt 0.9375 0.6333333333333333
vt 0.09375 0
vt 0.09375 0.06666666666666665
vt 0.0625 0.06666666666666665
vt 0.0625 0
vt 0.875 0.23333333333333328
vt 0.875 0.7666666666666666
vt 0.84375 0.7666666666666666
vt 0.84375 0.23333333333333328
vt 0.09375 0.7666666666666666
vt 0.0625 0.7666666666666666
vt 0.0625 0.23333333333333328
vt 0.09375 0.23333333333333328
vt 1 0.6333333333333333
vt 1 0.6666666666666667
vt 0.9375 0.6666666666666667
vt 0.9375 0.6333333333333333
vt 0.0625 0
vt 0.0625 0.06666666666666665
vt 0.03125 0.06666666666666665
vt 0.03125 0
vt 0.90625 0.2666666666666667
vt 0.90625 0.7333333333333334
vt 0.875 0.7333333333333334
vt 0.875 0.2666666666666667
vt 0.0625 0.7333333333333334
vt 0.03125 0.7333333333333334
vt 0.03125 0.2666666666666667
vt 0.0625 0.2666666666666667
vt 1 0.6333333333333333
vt 0.9375 0.6333333333333333
vt 0.9375 0.3666666666666667
vt 1 0.3666666666666667
vt 1 0.5333333333333333
vt 1 0.5666666666666667
vt 0.9375 0.5666666666666667
vt 0.9375 0.5333333333333333
vt 0.03125 0
vt 0.03125 0.06666666666666665
vt 0 0.06666666666666665
vt 0 0
vt 0.9375 0.3666666666666667
vt 0.9375 0.6333333333333333
vt 0.90625 0.6333333333333333
vt 0.90625 0.3666666666666667
vt 0.03125 0.6333333333333333
vt 0 0.6333333333333333
vt 0 0.3666666666666667
vt 0.03125 0.3666666666666667
vt 0.9375 0.6
vt 1 0.6
vt 1 0.7
vt 0.9375 0.7
vt 0.937496875 0.7666666666666666
vt 0.999996875 0.7666666666666666
vt 1 0.8333333333333334
vt 0.9375 0.8333333333333334
vt 0.9375 0.16666666666666663
vt 1 0.16666666666666663
vt 1 0.23333333333333328
vt 0.9375 0.23333333333333328
vt 0.9375 0.7333333333333334
vt 1 0.7333333333333334
vt 1 0.7666666666666666
vt 0.9375 0.7666666666666666
vt 0.9375 0.8333333333333334
vt 1 0.8333333333333334
vt 1 0.8666666666666667
vt 0.9375 0.8666666666666667
vt 0.9375 0.8666666666666667
vt 1 0.8666666666666667
vt 1 0.9
vt 0.9375 0.9
vt 0.9375 0.9
vt 1 0.9
vt 1 0.9333333333333333
vt 0.9375 0.9333333333333333
vt 0.9375 0.9333333333333333
vt 1 0.9333333333333333
vt 1 0.9666666666666667
vt 0.9375 0.9666666666666667
vt 0.9375 0.9666666666666667
vt 1 0.9666666666666667
vt 1 1
vt 0.9375 1
vt 0.9375 0
vt 1 0
vt 1 0.033333333333333326
vt 0.9375 0.033333333333333326
vt 0.9375 0.033333333333333326
vt 1 0.033333333333333326
vt 1 0.06666666666666665
vt 0.9375 0.06666666666666665
vt 0.9375 0.06666666666666665
vt 1 0.06666666666666665
vt 1 0.09999999999999998
vt 0.9375 0.09999999999999998
vt 0.9375 0.09999999999999998
vt 1 0.09999999999999998
vt 1 0.1333333333333333
vt 0.9375 0.1333333333333333
vt 0.9375 0.1333333333333333
vt 1 0.1333333333333333
vt 1 0.16666666666666663
vt 0.9375 0.16666666666666663
vt 0.9375 0.23333333333333328
vt 1 0.23333333333333328
vt 1 0.2666666666666667
vt 0.9375 0.2666666666666667
vt 0.9375 0.2666666666666667
vt 1 0.2666666666666667
vt 1 0.3666666666666667
vt 0.9375 0.3666666666666667
vn 0 0.9999999999994518 0.0000010471975511964064
vn 0 -0.9999999999994518 -0.0000010471975511964064
vn 0.766044443118978 -6.731256108031354e-7 0.6427876096861869
vn -0.766044443118978 6.731256108031354e-7 -0.6427876096861869
vn 0 0.9999999999994518 0.0000010471975511964064
vn 0 -0.9999999999994518 -0.0000010471975511964064
vn 0.766044443118978 -6.731256108031354e-7 0.6427876096861869
vn -0.766044443118978 6.731256108031354e-7 -0.6427876096861869
vn 0 0.9999999999994518 0.0000010471975511964064
vn 0 -0.9999999999994518 -0.0000010471975511964064
vn 0.766044443118978 -6.731256108031354e-7 0.6427876096861869
vn -0.766044443118978 6.731256108031354e-7 -0.6427876096861869
vn 0 0.9999999999994518 0.0000010471975511964064
vn 0 -0.9999999999994518 -0.0000010471975511964064
vn 0.766044443118978 -6.731256108031354e-7 0.6427876096861869
vn -0.766044443118978 6.731256108031354e-7 -0.6427876096861869
vn 0 0.9999999999994518 0.0000010471975511964064
vn 0 -0.9999999999994518 -0.0000010471975511964064
vn 0.766044443118978 -6.731256108031354e-7 0.6427876096861869
vn -0.766044443118978 6.731256108031354e-7 -0.6427876096861869
vn 0 0.9999999999994518 0.0000010471975511964064
vn 0 -0.9999999999994518 -0.0000010471975511964064
vn 0.766044443118978 -6.731256108031354e-7 0.6427876096861869
vn -0.766044443118978 6.731256108031354e-7 -0.6427876096861869
vn 0 0.9999999999994518 0.0000010471975511964064
vn 0 -0.9999999999994518 -0.0000010471975511964064
vn 0.766044443118978 -6.731256108031354e-7 0.6427876096861869
vn -0.766044443118978 6.731256108031354e-7 -0.6427876096861869
vn 0 0.9999999999994518 0.0000010471975511964064
vn 0 -0.9999999999994518 -0.0000010471975511964064
vn 0.766044443118978 -6.731256108031354e-7 0.6427876096861869
vn -0.766044443118978 6.731256108031354e-7 -0.6427876096861869
vn 0.6427876096865393 8.021998649418085e-7 -0.766044443118558
vn 0 0.9999999999994518 0.0000010471975511964064
vn 0 -0.9999999999994518 -0.0000010471975511964064
vn 0.766044443118978 -6.731256108031354e-7 0.6427876096861869
vn -0.766044443118978 6.731256108031354e-7 -0.6427876096861869
vn 0.6427876096865393 8.021998649418085e-7 -0.766044443118558
vn 0.6427876096865393 8.021998649418085e-7 -0.766044443118558
vn 0.6427876096865393 8.021998649418085e-7 -0.766044443118558
vn 0.6427876096865393 8.021998649418085e-7 -0.766044443118558
vn 0.6427876096865393 8.021998649418085e-7 -0.766044443118558
vn 0.6427876096865393 8.021998649418085e-7 -0.766044443118558
vn 0.6427876096865393 8.021998649418085e-7 -0.766044443118558
vn 0.6427876096865393 8.021998649418085e-7 -0.766044443118558
vn 0.6427876096865393 8.021998649418085e-7 -0.766044443118558
vn 0.6427876096865393 8.021998649418085e-7 -0.766044443118558
vn 0.6427876096865393 8.021998649418085e-7 -0.766044443118558
vn 0.6427876096865393 8.021998649418085e-7 -0.766044443118558
vn 0.6427876096865393 8.021998649418085e-7 -0.766044443118558
vn 0.6427876096865393 8.021998649418085e-7 -0.766044443118558
vn 0.6427876096865393 8.021998649418085e-7 -0.766044443118558
vn 0.6427876096865393 8.021998649418085e-7 -0.766044443118558
vn 0 0.9999999999994518 0.0000010471975511964064
vn 0 -0.9999999999994518 -0.0000010471975511964064
vn -0.7660444431172192 0.000002815982753652638 -0.6427876096824671
vn 0.7660444431172192 -0.000002815982753650816 0.6427876096824671
vn 0 0.9999999999994518 0.0000010471975511964064
vn 0 -0.9999999999994518 -0.0000010471975511964064
vn -0.7660444431175616 0.0000025962025338742032 -0.6427876096829844
vn 0.7660444431175616 -0.0000025962025338697216 0.6427876096829844
vn 0 0.9999999999994518 0.0000010471975511964064
vn 0 -0.9999999999994518 -0.0000010471975511964064
vn -0.7660444431173158 0.000002756458944129345 -0.6427876096826103
vn 0.7660444431173158 -0.000002756458944124489 0.6427876096826103
vn 0 0.9999999999994518 0.0000010471975511964064
vn 0 -0.9999999999994518 -0.0000010471975511964064
vn -0.7660444431177119 0.000002491307428979839 -0.6427876096832205
vn 0.7660444431177119 -0.000002491307428971564 0.6427876096832205
vn 0 0.9999999999994518 0.0000010471975511964064
vn 0 -0.9999999999994518 -0.0000010471975511964064
vn -0.7660444431174459 0.0000026731256107966927 -0.6427876096828069
vn 0.7660444431174459 -0.0000026731256107875905 0.6427876096828069
vn 0 0.9999999999994518 0.0000010471975511964064
vn 0 -0.9999999999994518 -0.0000010471975511964064
vn -0.7660444431176315 0.0000025481256107976282 -0.6427876096830935
vn 0.7660444431176315 -0.0000025481256107821563 0.6427876096830935
vn 0 0.9999999999994518 0.0000010471975511964064
vn 0 -0.9999999999994518 -0.0000010471975511964064
vn -0.7660444431172192 0.000002815982753652638 -0.6427876096824671
vn 0.7660444431172192 -0.000002815982753634955 0.6427876096824671
vn -0.6427876096865393 -8.021998649418085e-7 0.766044443118558
vn 0 0.9999999999994518 0.0000010471975511964064
vn 0 -0.9999999999994518 -0.0000010471975511964064
vn -0.7660444431165842 0.0000031731256107918484 -0.64278760968156
vn 0.7660444431165842 -0.000003173125610752715 0.64278760968156
vn -0.6427876096865393 -8.021998649418085e-7 0.766044443118558
vn -0.6427876096865393 -8.021998649418085e-7 0.766044443118558
vn -0.6427876096865393 -8.021998649418085e-7 0.766044443118558
vn -0.6427876096865393 -8.021998649418085e-7 0.766044443118558
vn -0.6427876096865393 -8.021998649418085e-7 0.766044443118558
vn -0.6427876096865393 -8.021998649418085e-7 0.766044443118558
vn -0.6427876096865393 -8.021998649418085e-7 0.766044443118558
vn -0.6427876096865393 -8.021998649418085e-7 0.766044443118558
vn -0.6427876096865393 -8.021998649418085e-7 0.766044443118558
vn -0.6427876096865393 -8.021998649418085e-7 0.766044443118558
vn -0.6427876096865393 -8.021998649418085e-7 0.766044443118558
vn -0.6427876096865393 -8.021998649418085e-7 0.766044443118558
vn -0.6427876096865393 -8.021998649418085e-7 0.766044443118558
vn -0.6427876096865393 -8.021998649418085e-7 0.766044443118558
vn -0.6427876096865393 -8.021998649418085e-7 0.766044443118558
vn -0.6427876096865393 -8.021998649418085e-7 0.766044443118558
usemtl m_9b100cb8-0a5b-0afd-4c58-6f9f641baa73
f 5/1/1 1/2/1 2/3/1 6/4/1
f 4/5/2 3/6/2 7/7/2 8/8/2
f 3/9/3 1/10/3 5/11/3 7/12/3
f 6/13/4 2/14/4 4/15/4 8/16/4
f 13/17/5 9/18/5 10/19/5 14/20/5
f 12/21/6 11/22/6 15/23/6 16/24/6
f 11/25/7 9/26/7 13/27/7 15/28/7
f 14/29/8 10/30/8 12/31/8 16/32/8
f 21/33/9 17/34/9 18/35/9 22/36/9
f 20/37/10 19/38/10 23/39/10 24/40/10
f 19/41/11 17/42/11 21/43/11 23/44/11
f 22/45/12 18/46/12 20/47/12 24/48/12
f 29/49/13 25/50/13 26/51/13 30/52/13
f 28/53/14 27/54/14 31/55/14 32/56/14
f 27/57/15 25/58/15 29/59/15 31/60/15
f 30/61/16 26/62/16 28/63/16 32/64/16
f 37/65/17 33/66/17 34/67/17 38/68/17
f 36/69/18 35/70/18 39/71/18 40/72/18
f 35/73/19 33/74/19 37/75/19 39/76/19
f 38/77/20 34/78/20 36/79/20 40/80/20
f 45/81/21 41/82/21 42/83/21 46/84/21
f 44/85/22 43/86/22 47/87/22 48/88/22
f 43/89/23 41/90/23 45/91/23 47/92/23
f 46/93/24 42/94/24 44/95/24 48/96/24
f 53/97/25 49/98/25 50/99/25 54/100/25
f 52/101/26 51/102/26 55/103/26 56/104/26
f 51/105/27 49/106/27 53/107/27 55/108/27
f 54/109/28 50/110/28 52/111/28 56/112/28
f 61/113/29 57/114/29 58/115/29 62/116/29
f 60/117/30 59/118/30 63/119/30 64/120/30
f 59/121/31 57/122/31 61/123/31 63/124/31
f 62/125/32 58/126/32 60/127/32 64/128/32
f 66/129/33 65/130/33 67/131/33 68/132/33
f 69/133/34 65/134/34 66/135/34 70/136/34
f 68/137/35 67/138/35 71/139/35 72/140/35
f 67/141/36 65/142/36 69/143/36 71/144/36
f 70/145/37 66/146/37 68/147/37 72/148/37
f 73/149/38 74/150/38 76/151/38 75/152/38
f 77/153/39 78/154/39 80/155/39 79/156/39
f 81/157/40 82/158/40 84/159/40 83/160/40
f 85/161/41 86/162/41 88/163/41 87/164/41
f 89/165/42 90/166/42 92/167/42 91/168/42
f 93/169/43 94/170/43 96/171/43 95/172/43
f 97/173/44 98/174/44 100/175/44 99/176/44
f 101/177/45 102/178/45 104/179/45 103/180/45
f 105/181/46 106/182/46 108/183/46 107/184/46
f 109/185/47 110/186/47 112/187/47 111/188/47
f 113/189/48 114/190/48 116/191/48 115/192/48
f 117/193/49 118/194/49 120/195/49 119/196/49
f 121/197/50 122/198/50 124/199/50 123/200/50
f 125/201/51 126/202/51 128/203/51 127/204/51
f 129/205/52 130/206/52 132/207/52 131/208/52
f 133/209/53 134/210/53 136/211/53 135/212/53
f 141/213/54 137/214/54 138/215/54 142/216/54
f 140/217/55 139/218/55 143/219/55 144/220/55
f 139/221/56 137/222/56 141/223/56 143/224/56
f 142/225/57 138/226/57 140/227/57 144/228/57
f 149/229/58 145/230/58 146/231/58 150/232/58
f 148/233/59 147/234/59 151/235/59 152/236/59
f 147/237/60 145/238/60 149/239/60 151/240/60
f 150/241/61 146/242/61 148/243/61 152/244/61
f 157/245/62 153/246/62 154/247/62 158/248/62
f 156/249/63 155/250/63 159/251/63 160/252/63
f 155/253/64 153/254/64 157/255/64 159/256/64
f 158/257/65 154/258/65 156/259/65 160/260/65
f 165/261/66 161/262/66 162/263/66 166/264/66
f 164/265/67 163/266/67 167/267/67 168/268/67
f 163/269/68 161/270/68 165/271/68 167/272/68
f 166/273/69 162/274/69 164/275/69 168/276/69
f 173/277/70 169/278/70 170/279/70 174/280/70
f 172/281/71 171/282/71 175/283/71 176/284/71
f 171/285/72 169/286/72 173/287/72 175/288/72
f 174/289/73 170/290/73 172/291/73 176/292/73
f 181/293/74 177/294/74 178/295/74 182/296/74
f 180/297/75 179/298/75 183/299/75 184/300/75
f 179/301/76 177/302/76 181/303/76 183/304/76
f 182/305/77 178/306/77 180/307/77 184/308/77
f 189/309/78 185/310/78 186/311/78 190/312/78
f 188/313/79 187/314/79 191/315/79 192/316/79
f 187/317/80 185/318/80 189/319/80 191/320/80
f 190/321/81 186/322/81 188/323/81 192/324/81
f 194/325/82 193/326/82 195/327/82 196/328/82
f 197/329/83 193/330/83 194/331/83 198/332/83
f 196/333/84 195/334/84 199/335/84 200/336/84
f 195/337/85 193/338/85 197/339/85 199/340/85
f 198/341/86 194/342/86 196/343/86 200/344/86
f 201/345/87 202/346/87 204/347/87 203/348/87
f 205/349/88 206/350/88 208/351/88 207/352/88
f 209/353/89 210/354/89 212/355/89 211/356/89
f 213/357/90 214/358/90 216/359/90 215/360/90
f 217/361/91 218/362/91 220/363/91 219/364/91
f 221/365/92 222/366/92 224/367/92 223/368/92
f 225/369/93 226/370/93 228/371/93 227/372/93
f 229/373/94 230/374/94 232/375/94 231/376/94
f 233/377/95 234/378/95 236/379/95 235/380/95
f 237/381/96 238/382/96 240/383/96 239/384/96
f 241/385/97 242/386/97 244/387/97 243/388/97
f 245/389/98 246/390/98 248/391/98 247/392/98
f 249/393/99 250/394/99 252/395/99 251/396/99
f 253/397/100 254/398/100 256/399/100 255/400/100
f 257/401/101 258/402/101 260/403/101 259/404/101
f 261/405/102 262/406/102 264/407/102 263/408/102
g knob
v 0.1815260016501724 0.5312500038516353 -0.1726014947947619
v 0.13364822395523632 0.531250044025861 -0.21277572040015053
v 0.1815260016501724 0.46875000385166665 -0.17260155729476187
v 0.13364822395523632 0.46875004402589227 -0.2127757829001505
v 0.1413517760447637 0.5312499559738577 -0.12472371709984972
v 0.0934739983498276 0.5312499961480833 -0.16489794270523833
v 0.1413517760447637 0.46874995597388897 -0.1247237795998497
v 0.0934739983498276 0.4687499961481146 -0.1648980052052383
v 0.15373533675794065 0.5625000679647343 -0.23671457799760662
v 0.10585755906300454 0.5625001081389598 -0.2768888036029953
v 0.15373533675794065 0.43750006796479673 -0.23671470299760658
v 0.10585755906300454 0.4375001081390223 -0.2768889286029952
v 0.07338688554712325 0.5624999722091788 -0.14095902260778226
v 0.02550910785218713 0.5625000123834044 -0.1811332482131709
v 0.07338688554712325 0.43749997220924136 -0.14095914760778222
v 0.02550910785218713 0.4375000123834669 -0.18113337321317086
v 0.2371078102124129 0.5312498756250048 -0.044374864146816434
v 0.284985587907349 0.5312498354507792 -0.004200638541427798
v 0.2371078102124129 0.46874987562503606 -0.0443749266468164
v 0.284985587907349 0.4687498354508105 -0.004200701041427779
v 0.2772820358178216 0.5312499235027824 -0.0922526418417286
v 0.32515981351275774 0.5312498833285568 -0.052078416236339964
v 0.2772820358178216 0.46874992350281375 -0.09225270434172858
v 0.32515981351275774 0.46874988332858814 -0.052078478736339945
v 0.2648984751046447 0.5624998115118747 0.019738281556028303
v 0.31277625279958077 0.5624997713376492 0.059912507161416884
v 0.2648984751046447 0.4374998115119373 0.01973815655602834
v 0.31277625279958077 0.4374997713377117 0.05991238216141695
v 0.34524692631546205 0.5624999072674302 -0.07601727383379607
v 0.3931247040103982 0.5624998670932045 -0.03584304822840745
v 0.34524692631546205 0.43749990726749266 -0.07601739883379602
v 0.3931247040103982 0.43749986709326705 -0.03584317322840741
vt 0.5625 0.75
vt 0.5 0.75
vt 0.5 0.6875
vt 0.5625 0.6875
vt 0.375 0.8125
vt 0.375 0.875
vt 0.3125 0.875
vt 0.3125 0.8125
vt 0.3125 0.8125
vt 0.375 0.8125
vt 0.375 0.875
vt 0.3125 0.875
vt 0.5625 0.0625
vt 0.5625 0.125
vt 0.5 0.125
vt 0.5 0.0625
vt 0.25 1
vt 0 1
vt 0 0.5
vt 0.25 0.5
vt 0.5625 0.75
vt 0.5 0.75
vt 0.5 0.625
vt 0.5625 0.625
vt 0.25 0.375
vt 0.25 0.5
vt 0.1875 0.5
vt 0.1875 0.375
vt 0.25 0.6875
vt 0.375 0.6875
vt 0.375 0.75
vt 0.25 0.75
vt 0.5625 0.125
vt 0.5625 0.1875
vt 0.4375 0.1875
vt 0.4375 0.125
vt 0.5 0.5
vt 0.5 0.625
vt 0.375 0.625
vt 0.375 0.5
vt 0.375 0.25
vt 0.25 0.25
vt 0.25 0.125
vt 0.375 0.125
vt 0.5625 0.75
vt 0.5 0.75
vt 0.5 0.6875
vt 0.5625 0.6875
vt 0.375 0.8125
vt 0.375 0.875
vt 0.3125 0.875
vt 0.3125 0.8125
vt 0.3125 0.8125
vt 0.375 0.8125
vt 0.375 0.875
vt 0.3125 0.875
vt 0.5625 0.0625
vt 0.5625 0.125
vt 0.5 0.125
vt 0.5 0.0625
vt 0.25 1
vt 0 1
vt 0 0.5
vt 0.25 0.5
vt 0.5625 0.75
vt 0.5 0.75
vt 0.5 0.625
vt 0.5625 0.625
vt 0.25 0.375
vt 0.25 0.5
vt 0.1875 0.5
vt 0.1875 0.375
vt 0.25 0.6875
vt 0.375 0.6875
vt 0.375 0.75
vt 0.25 0.75
vt 0.5625 0.125
vt 0.5625 0.1875
vt 0.4375 0.1875
vt 0.4375 0.125
vt 0.5 0.5
vt 0.5 0.625
vt 0.375 0.625
vt 0.375 0.5
vt 0.375 0.25
vt 0.25 0.25
vt 0.25 0.125
vt 0.375 0.125
vn 0.6427876096865394 7.660444428100039e-7 -0.7660444431185949
vn -0.6427876096865394 -7.660444428100039e-7 0.7660444431185949
vn -2.117582368135751e-22 0.9999999999995 9.99999999596663e-7
vn 2.117582368135751e-22 -0.9999999999995 -9.99999999596663e-7
vn -0.7660444431189779 6.427876094272794e-7 -0.642787609686218
vn 0.6427876096865394 7.660444428100039e-7 -0.7660444431185949
vn -0.6427876096865394 -7.660444428100039e-7 0.7660444431185949
vn -2.117582368135751e-22 0.9999999999995 9.99999999596663e-7
vn 2.117582368135751e-22 -0.9999999999995 -9.99999999596663e-7
vn 0.7660444431189779 -6.427876094272794e-7 0.642787609686218
vn -0.7660444431189779 6.427876094272794e-7 -0.642787609686218
vn -0.6427876096865394 -7.660444428100039e-7 0.7660444431185949
vn 0.6427876096865394 7.660444428100039e-7 -0.7660444431185949
vn -2.117582368135751e-22 0.9999999999995 9.99999999596663e-7
vn 2.117582368135751e-22 -0.9999999999995 -9.99999999596663e-7
vn 0.7660444431189779 -6.427876094272794e-7 0.642787609686218
vn -0.6427876096865394 -7.660444428100039e-7 0.7660444431185949
vn 0.6427876096865394 7.660444428100039e-7 -0.7660444431185949
vn -2.117582368135751e-22 0.9999999999995 9.99999999596663e-7
vn 2.117582368135751e-22 -0.9999999999995 -9.99999999596663e-7
vn -0.7660444431189779 6.427876094272794e-7 -0.642787609686218
vn 0.7660444431189779 -6.427876094272794e-7 0.642787609686218
usemtl m_6db608e1-4c6a-3275-eedb-a4fbf2b9798a
f 266/409/103 265/410/103 267/411/103 268/412/103
f 271/413/104 269/414/104 270/415/104 272/416/104
f 269/417/105 265/418/105 266/419/105 270/420/105
f 268/421/106 267/422/106 271/423/106 272/424/106
f 270/425/107 266/426/107 268/427/107 272/428/107
f 274/429/108 273/430/108 275/431/108 276/432/108
f 279/433/109 277/434/109 278/435/109 280/436/109
f 277/437/110 273/438/110 274/439/110 278/440/110
f 276/441/111 275/442/111 279/443/111 280/444/111
f 275/445/112 273/446/112 277/447/112 279/448/112
f 278/449/113 274/450/113 276/451/113 280/452/113
f 282/453/114 281/454/114 283/455/114 284/456/114
f 287/457/115 285/458/115 286/459/115 288/460/115
f 285/461/116 281/462/116 282/463/116 286/464/116
f 284/465/117 283/466/117 287/467/117 288/468/117
f 286/469/118 282/470/118 284/471/118 288/472/118
f 290/473/119 289/474/119 291/475/119 292/476/119
f 295/477/120 293/478/120 294/479/120 296/480/120
f 293/481/121 289/482/121 290/483/121 294/484/121
f 292/485/122 291/486/122 295/487/122 296/488/122
f 291/489/123 289/490/123 293/491/123 295/492/123
f 294/493/124 290/494/124 292/495/124 296/496/124
