# Made in Blockbench 5.1.6
mtllib shirelike.mtl

o shirelike
v 0.35355374414569135 -0.9999982714504929 -0.35355353703930414
v 0.353553037040855 -0.0000010214427261234782 -0.35355324414689093
v -0.353553037040855 -0.9999989785572738 0.35355324414689093
v -0.35355374414569135 -0.0000017285495070296086 0.35355353703930414
v -0.353553037041651 -0.9999973964540225 -0.35355353703922415
v -0.3535534870168421 -1.464466493072969e-7 -0.35355298701716537
v 0.3535534870168421 -0.9999998535533507 0.35355298701716537
v 0.353553037041651 -0.0000026035459775863856 0.35355353703922415
vt 1 0
vt 1 1
vt 0 1
vt 0 0
vt 1 0
vt 1 1
vt 0 1
vt 0 0
vn 0.7071067811861951 2.9289321870018946e-7 0.7071067811868393
vn 0.7071067811865475 7.071067811114827e-7 -0.707106781186194
usemtl m_e00f7a66-0c72-fa48-f3a0-d0c355eff589
f 1/1/1 2/2/1 4/3/1 3/4/1
f 5/5/2 6/6/2 8/7/2 7/8/2